<svg xmlns="http://www.w3.org/2000/svg" width="40" height="40" viewBox="0 0 40 40">
  <g id="그룹_2450" data-name="그룹 2450" transform="translate(-1658 -12)">
    <g id="그룹_1594" data-name="그룹 1594" transform="translate(5635.027 -9694.371) rotate(45)">
      <path id="패스_1837" data-name="패스 1837" d="M3889,9685.25a.683.683,0,0,1-.75-.585v-18.829a.773.773,0,0,1,1.5,0v18.829A.683.683,0,0,1,3889,9685.25Z" transform="translate(190.974 0.5)" fill="#999"/>
      <path id="패스_1838" data-name="패스 1838" d="M.75,20A.683.683,0,0,1,0,19.415V.585A.683.683,0,0,1,.75,0,.683.683,0,0,1,1.5.585V19.415A.683.683,0,0,1,.75,20Z" transform="translate(4089.75 9674.937) rotate(90)" fill="#999"/>
    </g>
    <rect id="사각형_7548" data-name="사각형 7548" width="40" height="40" transform="translate(1658 12)" fill="none"/>
  </g>
</svg>
