<svg xmlns="http://www.w3.org/2000/svg" width="12.82" height="12.894" viewBox="0 0 12.82 12.894">
  <g id="그룹_2258" data-name="그룹 2258" transform="translate(-1685.28 -402.206)">
    <path id="패스_1837" data-name="패스 1837" d="M0,15.751A.75.75,0,0,1-.75,15V0A.75.75,0,0,1,0-.75.75.75,0,0,1,.75,0V15A.75.75,0,0,1,0,15.751Z" transform="translate(1697.039 403.432) rotate(45)" fill="#333"/>
    <path id="패스_1838" data-name="패스 1838" d="M0,15.75A.75.75,0,0,1-.75,15V0A.75.75,0,0,1,0-.75.75.75,0,0,1,.75,0V15A.75.75,0,0,1,0,15.75Z" transform="translate(1696.947 413.873) rotate(135)" fill="#333"/>
  </g>
</svg>
