<svg id="Icon_feather-download" data-name="Icon feather-download" xmlns="http://www.w3.org/2000/svg" width="14" height="14" viewBox="0 0 14 14">
  <path id="패스_9058" data-name="패스 9058" d="M14.9,26.573H5.1A2.1,2.1,0,0,1,3,24.483V21.7a.7.7,0,0,1,1.4,0v2.786a.7.7,0,0,0,.7.7h9.8a.7.7,0,0,0,.7-.7V21.7a.7.7,0,0,1,1.4,0v2.786A2.1,2.1,0,0,1,14.9,26.573Z" transform="translate(-3 -12.573)" fill="#999"/>
  <path id="패스_9059" data-name="패스 9059" d="M13.214,18.376a.7.7,0,0,1-.5-.2L9.206,14.689a.693.693,0,0,1,0-.985.706.706,0,0,1,.993,0l3.015,2.99,3.015-2.99a.706.706,0,0,1,.993,0,.693.693,0,0,1,0,.985L13.71,18.172A.7.7,0,0,1,13.214,18.376Z" transform="translate(-6.214 -8.587)" fill="#999"/>
  <path id="패스_9060" data-name="패스 9060" d="M17.2,12.752a.7.7,0,0,1-.7-.7V3.7a.7.7,0,0,1,1.393,0v8.359A.7.7,0,0,1,17.2,12.752Z" transform="translate(-10.197 -3)" fill="#999"/>
</svg>
