<svg xmlns="http://www.w3.org/2000/svg" width="24" height="23" viewBox="0 0 24 23">
  <g id="excel" transform="translate(0 -10.626)">
    <g id="그룹_1502" data-name="그룹 1502" transform="translate(0 10.626)">
      <path id="패스_1827" data-name="패스 1827" d="M13.888,10.738a.5.5,0,0,0-.426-.1l-13.072,3a.5.5,0,0,0-.39.492v17a.5.5,0,0,0,.426.494l13.072,2a.5.5,0,0,0,.579-.494v-22A.5.5,0,0,0,13.888,10.738Z" transform="translate(0 -10.626)" fill="#4caf50"/>
      <path id="패스_1828" data-name="패스 1828" d="M287.891,72.351H277.836a.5.5,0,1,1,0-1h9.552V54.376h-9.552a.5.5,0,1,1,0-1h10.055a.5.5,0,0,1,.5.5V71.852A.5.5,0,0,1,287.891,72.351Z" transform="translate(-264.394 -51.362)" fill="#4caf50"/>
    </g>
    <g id="그룹_1503" data-name="그룹 1503" transform="translate(3.984 17.589)">
      <path id="패스_1829" data-name="패스 1829" d="M90.688,168.822a.5.5,0,0,1-.426-.236l-5.028-8.044a.5.5,0,1,1,.835-.56l.017.028,5.028,8.044a.5.5,0,0,1-.426.768Z" transform="translate(-85.149 -159.758)" fill="#fafafa"/>
      <path id="패스_1830" data-name="패스 1830" d="M85.857,168.8a.5.5,0,0,1-.425-.769l5.028-8.044a.5.5,0,1,1,.87.5l-.017.028-5.028,8.044A.5.5,0,0,1,85.857,168.8Z" transform="translate(-85.345 -159.737)" fill="#fafafa"/>
    </g>
    <g id="그룹_1504" data-name="그룹 1504" transform="translate(12.939 12.641)">
      <path id="패스_1831" data-name="패스 1831" d="M363.17,72.35a.5.5,0,0,1-.5-.5V53.875a.5.5,0,0,1,1.006,0V71.851A.5.5,0,0,1,363.17,72.35Z" transform="translate(-358.645 -53.376)" fill="#4caf50"/>
      <path id="패스_1832" data-name="패스 1832" d="M287.891,374.382H277.836a.5.5,0,0,1,0-1.006h10.055a.5.5,0,0,1,0,1.006Z" transform="translate(-277.333 -358.402)" fill="#4caf50"/>
      <path id="패스_1833" data-name="패스 1833" d="M287.891,310.382H277.836a.5.5,0,0,1,0-1.006h10.055a.5.5,0,0,1,0,1.006Z" transform="translate(-277.333 -297.397)" fill="#4caf50"/>
      <path id="패스_1834" data-name="패스 1834" d="M287.891,246.382H277.836a.5.5,0,1,1,0-1.006h10.055a.5.5,0,0,1,0,1.006Z" transform="translate(-277.333 -236.392)" fill="#4caf50"/>
      <path id="패스_1835" data-name="패스 1835" d="M287.891,182.382H277.836a.5.5,0,0,1,0-1.006h10.055a.5.5,0,0,1,0,1.006Z" transform="translate(-277.333 -175.387)" fill="#4caf50"/>
      <path id="패스_1836" data-name="패스 1836" d="M287.891,118.382H277.836a.5.5,0,0,1,0-1.006h10.055a.5.5,0,0,1,0,1.006Z" transform="translate(-277.333 -114.381)" fill="#4caf50"/>
    </g>
  </g>
</svg>
