<svg xmlns="http://www.w3.org/2000/svg" width="500" height="322.997" viewBox="0 0 500 322.997">
  <g id="b" transform="translate(0 -0.007)">
    <g id="c" transform="translate(0 0.007)">
      <g id="그룹_1829" data-name="그룹 1829" transform="translate(0)">
        <path id="패스_8826" data-name="패스 8826" d="M653.735,47.46C538.977,42.869,548.133,122.7,524.65,95.626,479.715,43.807,399.6,42.75,378.409,99.871c-24.87,67.031,55.881,120.554,16.685,130.842-55.982,14.7-69.518,74.461-12.341,102.866L743.06,332.3s31.371-29.339,11.636-57.894-16.351-19.447,3.448-69.208c25.762-64.749-35.9-155-104.408-157.741Z" transform="translate(-299.452 -40.918)" fill="#e3f0fe"/>
        <ellipse id="타원_35" data-name="타원 35" cx="203.575" cy="24.841" rx="203.575" ry="24.841" transform="translate(68.98 273.316)" fill="#5b8fd2"/>
        <g id="그룹_1748" data-name="그룹 1748" transform="translate(0 114.229)">
          <g id="그룹_1746" data-name="그룹 1746">
            <ellipse id="타원_36" data-name="타원 36" cx="74.664" cy="73.737" rx="74.664" ry="73.737" transform="translate(0 9.599)" fill="#172956"/>
            <ellipse id="타원_37" data-name="타원 37" cx="74.664" cy="73.737" rx="74.664" ry="73.737" fill="#2c4784"/>
            <ellipse id="타원_38" data-name="타원 38" cx="60.699" cy="59.945" rx="60.699" ry="59.945" transform="translate(13.965 13.792)" fill="#c6e9f7"/>
            <path id="패스_8827" data-name="패스 8827" d="M164.629,950.21c-33.473,0-60.7,26.889-60.7,59.945q0,2.395.188,4.737c2.455-30.85,28.656-55.214,60.511-55.214s58.056,24.364,60.511,55.214q.185-2.34.188-4.737C225.329,977.1,198.1,950.21,164.629,950.21Z" transform="translate(-89.964 -936.418)"/>
          </g>
          <g id="그룹_1747" data-name="그룹 1747" transform="translate(43.303 37.315)">
            <path id="패스_8828" data-name="패스 8828" d="M387.547,1150.689,354.527,1165l-29.055-38.631a1.53,1.53,0,0,0-2.125-.311,1.487,1.487,0,0,0-.314,2.1l29.776,39.591a1.522,1.522,0,0,0,1.219.606,1.545,1.545,0,0,0,.61-.126l34.129-14.793a1.492,1.492,0,0,0,.779-1.977,1.524,1.524,0,0,0-2-.77Z" transform="translate(-322.667 -1125.697)" fill="#363636"/>
            <path id="패스_8829" data-name="패스 8829" d="M387.091,1150.191l-32.972,14.292-29.024-38.589a1.6,1.6,0,0,0-2.219-.324,1.555,1.555,0,0,0-.327,2.193l29.776,39.59a1.6,1.6,0,0,0,1.91.5l34.129-14.793a1.566,1.566,0,0,0,.843-.871,1.542,1.542,0,0,0-.028-1.195A1.594,1.594,0,0,0,387.091,1150.191Zm1.992,1.95a1.432,1.432,0,0,1-.77.8l-34.129,14.793a1.465,1.465,0,0,1-1.75-.458l-29.776-39.59a1.409,1.409,0,0,1-.27-1.06,1.423,1.423,0,0,1,.571-.943,1.462,1.462,0,0,1,2.031.3l29.087,38.674,33.069-14.333a1.46,1.46,0,0,1,1.912.736,1.411,1.411,0,0,1,.025,1.091Z" transform="translate(-322.236 -1125.26)"/>
          </g>
        </g>
        <g id="그룹_1770" data-name="그룹 1770" transform="translate(87.628 2.582)">
          <path id="패스_8830" data-name="패스 8830" d="M685.772,19.623c-.31-.028-.627-.043-.946-.043A10.477,10.477,0,0,0,674.35,30.056v30.2c-.685,6.264-5.992,18.737-12.44,18.737h12.44l11.422,0h9.53V30.056a10.475,10.475,0,0,0-9.53-10.432Z" transform="translate(-660.209 -19.532)" fill="#c2e3f8"/>
          <g id="그룹_1757" data-name="그룹 1757" transform="translate(0 41.453)">
            <rect id="사각형_7327" data-name="사각형 7327" width="189.157" height="246.509" fill="#3784bf"/>
            <rect id="사각형_7328" data-name="사각형 7328" width="175.584" height="232.936" transform="translate(6.786 6.788)" fill="#92d4f5"/>
            <g id="그룹_1756" data-name="그룹 1756" transform="translate(22.062 13.598)">
              <g id="그룹_1749" data-name="그룹 1749" transform="translate(70.633 0)">
                <circle id="타원_39" data-name="타원 39" cx="28.988" cy="28.988" r="28.988" transform="translate(0 40.995) rotate(-45)" fill="#fff"/>
                <path id="패스_8831" data-name="패스 8831" d="M1456.926,517.74a29.056,29.056,0,1,0,20.545,8.51A28.866,28.866,0,0,0,1456.926,517.74Zm20.451,49.505a28.923,28.923,0,1,1,8.47-20.45A28.73,28.73,0,0,1,1477.376,567.245Z" transform="translate(-1415.932 -505.799)"/>
              </g>
              <rect id="사각형_7329" data-name="사각형 7329" width="70.676" height="4.969" transform="translate(0 18.91)" fill="#5b8fd2"/>
              <rect id="사각형_7330" data-name="사각형 7330" width="70.676" height="4.969" transform="translate(0 31.61)" fill="#5b8fd2"/>
              <rect id="사각형_7331" data-name="사각형 7331" width="70.676" height="4.969" transform="translate(0 44.414)" fill="#5b8fd2"/>
              <rect id="사각형_7332" data-name="사각형 7332" width="70.676" height="4.969" transform="translate(0 57.143)" fill="#5b8fd2"/>
              <g id="그룹_1750" data-name="그룹 1750" transform="translate(97.713 19.234)">
                <circle id="타원_40" data-name="타원 40" cx="10.65" cy="10.65" r="10.65" transform="translate(0 19.678) rotate(-67.5)" fill="#a0a0a0"/>
                <path id="패스_8832" data-name="패스 8832" d="M1575.057,595.8a10.717,10.717,0,1,0,10.717,10.717A10.73,10.73,0,0,0,1575.057,595.8Zm0,21.3a10.583,10.583,0,1,1,10.583-10.583A10.6,10.6,0,0,1,1575.057,617.1Z" transform="translate(-1561.142 -592.603)"/>
              </g>
              <g id="그룹_1751" data-name="그룹 1751" transform="translate(92.129 38.834)">
                <ellipse id="타원_41" data-name="타원 41" cx="19.432" cy="22.239" rx="19.432" ry="22.239" transform="translate(0.067 0.069)" fill="#a0a0a0"/>
                <path id="패스_8833" data-name="패스 8833" d="M1518.489,717.01c-10.752,0-19.5,10.006-19.5,22.306s8.747,22.306,19.5,22.306,19.5-10.006,19.5-22.306S1529.241,717.01,1518.489,717.01Zm0,44.479c-10.678,0-19.365-9.947-19.365-22.172s8.687-22.172,19.365-22.172,19.365,9.947,19.365,22.172S1529.167,761.489,1518.489,761.489Z" transform="translate(-1498.99 -717.01)"/>
              </g>
              <rect id="사각형_7333" data-name="사각형 7333" width="70.676" height="4.417" transform="translate(0 93.119)" fill="#e3f0fe"/>
              <g id="그룹_1752" data-name="그룹 1752" transform="translate(74.289 93.052)">
                <rect id="사각형_7334" data-name="사각형 7334" width="70.676" height="4.417" transform="translate(0.067 0.067)" fill="#fff"/>
                <path id="패스_8834" data-name="패스 8834" d="M1366.24,1124.231h70.81v-4.552h-70.81Zm.135-4.417h70.542v4.283h-70.542Z" transform="translate(-1366.24 -1119.68)"/>
              </g>
              <rect id="사각형_7335" data-name="사각형 7335" width="70.676" height="4.417" transform="translate(0 101.143)" fill="#e3f0fe"/>
              <g id="그룹_1753" data-name="그룹 1753" transform="translate(74.289 101.076)">
                <rect id="사각형_7336" data-name="사각형 7336" width="70.676" height="4.417" transform="translate(0.067 0.067)" fill="#fff"/>
                <path id="패스_8835" data-name="패스 8835" d="M1366.24,1183.8h70.81v-4.552h-70.81Zm.135-4.417h70.542v4.283h-70.542Z" transform="translate(-1366.24 -1179.25)"/>
              </g>
              <rect id="사각형_7337" data-name="사각형 7337" width="70.676" height="4.417" transform="translate(0 109.169)" fill="#e3f0fe"/>
              <g id="그룹_1754" data-name="그룹 1754" transform="translate(74.289 109.102)">
                <rect id="사각형_7338" data-name="사각형 7338" width="70.676" height="4.417" transform="translate(0.067 0.067)" fill="#fff"/>
                <path id="패스_8836" data-name="패스 8836" d="M1366.24,1243.381h70.81v-4.552h-70.81Zm.135-4.417h70.542v4.283h-70.542Z" transform="translate(-1366.24 -1238.83)"/>
              </g>
              <rect id="사각형_7339" data-name="사각형 7339" width="70.676" height="4.417" transform="translate(0 117.194)" fill="#e3f0fe"/>
              <rect id="사각형_7340" data-name="사각형 7340" width="145.033" height="17.853" transform="translate(0 189.453)" fill="#e3f0fe"/>
              <g id="그룹_1755" data-name="그룹 1755" transform="translate(74.289 117.127)">
                <rect id="사각형_7341" data-name="사각형 7341" width="70.676" height="4.417" transform="translate(0.067 0.067)" fill="#fff"/>
                <path id="패스_8837" data-name="패스 8837" d="M1366.24,1302.961h70.81v-4.551h-70.81Zm.135-4.417h70.542v4.283h-70.542Z" transform="translate(-1366.24 -1298.41)"/>
              </g>
              <rect id="사각형_7342" data-name="사각형 7342" width="70.676" height="4.417" transform="translate(0 155.352)" fill="#5b8fd2"/>
              <rect id="사각형_7343" data-name="사각형 7343" width="70.676" height="4.417" transform="translate(74.357 155.352)" fill="#5b8fd2"/>
              <rect id="사각형_7344" data-name="사각형 7344" width="70.676" height="4.417" transform="translate(0 163.378)" fill="#5b8fd2"/>
              <rect id="사각형_7345" data-name="사각형 7345" width="70.676" height="4.417" transform="translate(74.357 163.378)" fill="#5b8fd2"/>
              <rect id="사각형_7346" data-name="사각형 7346" width="70.676" height="4.417" transform="translate(0 171.477)" fill="#5b8fd2"/>
              <rect id="사각형_7347" data-name="사각형 7347" width="70.676" height="4.417" transform="translate(74.357 171.477)" fill="#5b8fd2"/>
              <rect id="사각형_7348" data-name="사각형 7348" width="70.676" height="4.417" transform="translate(0 179.483)" fill="#5b8fd2"/>
              <rect id="사각형_7349" data-name="사각형 7349" width="70.676" height="4.417" transform="translate(74.357 179.483)" fill="#5b8fd2"/>
            </g>
          </g>
          <path id="패스_8838" data-name="패스 8838" d="M995.565,104.3V30.66a11.438,11.438,0,0,0-11.44-11.44H839.48v.093a10.476,10.476,0,0,1,9.53,10.432v64.33c0,5.707-.353,20.688,10.966,20.688h146.067A10.478,10.478,0,0,1,995.566,104.3Z" transform="translate(-813.916 -19.22)" fill="#e3f0fe"/>
          <g id="그룹_1762" data-name="그룹 1762" transform="translate(45.385 6.773)">
            <rect id="사각형_7350" data-name="사각형 7350" width="129.393" height="4.241" transform="translate(0 52.069)" fill="#4288d7"/>
            <rect id="사각형_7351" data-name="사각형 7351" width="129.393" height="4.241" transform="translate(0 60.441)" fill="#4288d7"/>
            <rect id="사각형_7352" data-name="사각형 7352" width="129.393" height="4.241" transform="translate(0 68.815)" fill="#4288d7"/>
            <rect id="사각형_7353" data-name="사각형 7353" width="129.393" height="4.241" transform="translate(0 77.188)" fill="#4288d7"/>
            <g id="그룹_1759" data-name="그룹 1759" transform="translate(0 3.173)">
              <rect id="사각형_7354" data-name="사각형 7354" width="54.534" height="12.95" fill="#3784bf"/>
              <g id="그룹_1758" data-name="그룹 1758" transform="translate(3.071 3.123)">
                <path id="패스_8839" data-name="패스 8839" d="M1013.487,121.909a2.307,2.307,0,0,1-.6-.275,1.653,1.653,0,0,1-.482-.5,2.138,2.138,0,0,1-.224-.575,2.049,2.049,0,0,1-.056-.531,1.312,1.312,0,0,1,.118-.536,1.712,1.712,0,0,1,.3-.447,2.223,2.223,0,0,1,.426-.359,2.834,2.834,0,0,1,.512-.263,3.175,3.175,0,0,1,.556-.16,3.345,3.345,0,0,1,.551-.059c-.007-.141-.016-.277-.027-.409s-.021-.263-.032-.4-.017-.267-.023-.4a3.866,3.866,0,0,1,.008-.43,8.582,8.582,0,0,0-.962-.005,4.052,4.052,0,0,0-.817.128,3.284,3.284,0,0,0-.752.308,5.351,5.351,0,0,0-.77.533,4.818,4.818,0,0,0-.5.47,3.145,3.145,0,0,0-.43.586,3.385,3.385,0,0,0-.311.732,3.649,3.649,0,0,0-.14.912,4.783,4.783,0,0,0,.02.693,2.44,2.44,0,0,0,.139.59l.738,1.146a2.845,2.845,0,0,0,.589.486,4.769,4.769,0,0,0,.861.438,6.131,6.131,0,0,0,1.045.305,4.788,4.788,0,0,0,1.146.089l.492-1.865c-.236-.023-.47-.047-.7-.071a3.58,3.58,0,0,1-.669-.133Z" transform="translate(-1009.829 -116.537)" fill="#fff"/>
                <path id="패스_8840" data-name="패스 8840" d="M1053.675,116.544a2.872,2.872,0,0,0-.432.024,1.505,1.505,0,0,0-.385.1q-.707,2.062-1.084,3.127c-.251.71-.4,1.1-.435,1.158l-1.854-4.487a4.533,4.533,0,0,0-.977.109,1.621,1.621,0,0,0-.657.305q.532,1.659.908,2.846t.593,1.9q.31.98.506,1.471t.27.516a3.055,3.055,0,0,0,.935.237,8.265,8.265,0,0,0,1.342.024c.1-.285.226-.622.364-1.009s.281-.8.43-1.235.3-.886.445-1.348.282-.914.4-1.353.224-.855.308-1.244a7.186,7.186,0,0,0,.155-1.028,3.32,3.32,0,0,0-.4-.081,3.385,3.385,0,0,0-.438-.036Z" transform="translate(-1042.741 -116.47)" fill="#fff"/>
              </g>
            </g>
            <g id="그룹_1760" data-name="그룹 1760" transform="translate(81.975)">
              <path id="패스_8841" data-name="패스 8841" d="M1618.359,69.62a21.37,21.37,0,1,0,21.368,21.37,21.37,21.37,0,0,0-21.368-21.37Z" transform="translate(-1596.99 -69.62)" fill="#92d4f5"/>
              <circle id="타원_42" data-name="타원 42" cx="7.851" cy="7.851" r="7.851" transform="translate(13.519 7.734)" fill="#fff"/>
              <path id="패스_8842" data-name="패스 8842" d="M1663.744,216.52c-7.911,0-14.324,7.34-14.324,16.395,0,.379.011.753.032,1.123a21.372,21.372,0,0,0,28.581,0q.034-.554.034-1.123c0-9.055-6.413-16.395-14.324-16.395Z" transform="translate(-1642.374 -196.779)" fill="#fff"/>
            </g>
            <g id="그룹_1761" data-name="그룹 1761" transform="translate(0 25.414)">
              <path id="패스_8843" data-name="패스 8843" d="M993.456,261.839l-1.528-3.1-1.529,3.1-3.419.5,2.474,2.411-.584,3.405,3.059-1.607,3.057,1.607-.585-3.405,2.474-2.411Z" transform="translate(-986.98 -258.74)" fill="#fcce4d"/>
              <path id="패스_8844" data-name="패스 8844" d="M1076.5,261.839l-1.529-3.1-1.53,3.1-3.418.5,2.474,2.411-.583,3.405,3.057-1.607,3.057,1.607-.583-3.405,2.473-2.411Z" transform="translate(-1058.861 -258.74)" fill="#fcce4d"/>
              <path id="패스_8845" data-name="패스 8845" d="M1159.546,261.839l-1.529-3.1-1.528,3.1-3.419.5,2.474,2.411-.584,3.405,3.057-1.607,3.059,1.607-.585-3.405,2.474-2.411Z" transform="translate(-1130.75 -258.74)" fill="#fcce4d"/>
            </g>
          </g>
          <path id="패스_8846" data-name="패스 8846" d="M1303.578,344.66H1157.51a10.475,10.475,0,0,1,10.475,10.459V481.436a11.44,11.44,0,0,0,11.44,11.44h144.647V365.155a20.494,20.494,0,0,0-20.495-20.495Z" transform="translate(-1089.209 -300.776)" fill="#fff"/>
          <path id="패스_8847" data-name="패스 8847" d="M1009.887,344.66a10.477,10.477,0,0,0-10.476,10.477v30.194A12.518,12.518,0,0,1,986.97,396.47h33.393V355.136A10.476,10.476,0,0,0,1009.887,344.66Z" transform="translate(-941.586 -300.837)" fill="#c2e3f8"/>
          <g id="그룹_1763" data-name="그룹 1763" transform="translate(89.051 184.332)">
            <path id="패스_8848" data-name="패스 8848" d="M1318.989,1394.487a10.8,10.8,0,0,1-7.068,3.134h145.812a8.739,8.739,0,0,0,6.485-2.623c1.038-1.037,3.024-5.137,3.024-5.137H1321.43S1319.906,1393.554,1318.989,1394.487Z" transform="translate(-1311.92 -1389.685)" fill="#fff"/>
            <path id="패스_8849" data-name="패스 8849" d="M1321.267,1388.668c-.015.036-1.521,3.672-2.4,4.572a10.721,10.721,0,0,1-6.944,3.082v.35h145.8c.039,0,.167.012.363.012a8.971,8.971,0,0,0,6.254-2.688c1.047-1.047,2.977-5.016,3.057-5.184l.122-.251H1321.313l-.044.109Zm145.692.242a28.022,28.022,0,0,1-2.866,4.838,8.635,8.635,0,0,1-6.345,2.572h-143.6a10.837,10.837,0,0,0,4.964-2.835,21.922,21.922,0,0,0,2.432-4.574Z" transform="translate(-1311.92 -1388.56)"/>
          </g>
          <g id="그룹_1769" data-name="그룹 1769" transform="translate(92.737 53.669)">
            <rect id="사각형_7355" data-name="사각형 7355" width="129.393" height="4.241" transform="translate(0 52.069)" fill="#4288d7"/>
            <rect id="사각형_7356" data-name="사각형 7356" width="129.393" height="4.241" transform="translate(0 60.443)" fill="#4288d7"/>
            <rect id="사각형_7357" data-name="사각형 7357" width="129.393" height="4.241" transform="translate(0 68.816)" fill="#4288d7"/>
            <rect id="사각형_7358" data-name="사각형 7358" width="129.393" height="4.241" transform="translate(0 77.188)" fill="#4288d7"/>
            <rect id="사각형_7359" data-name="사각형 7359" width="46.781" height="4.241" transform="translate(0 92.314)" fill="#92d4f5"/>
            <rect id="사각형_7360" data-name="사각형 7360" width="46.781" height="4.241" transform="translate(82.612 92.314)" fill="#92d4f5"/>
            <rect id="사각형_7361" data-name="사각형 7361" width="46.781" height="4.241" transform="translate(0 100.319)" fill="#92d4f5"/>
            <rect id="사각형_7362" data-name="사각형 7362" width="46.781" height="4.241" transform="translate(82.612 100.319)" fill="#92d4f5"/>
            <rect id="사각형_7363" data-name="사각형 7363" width="46.781" height="4.241" transform="translate(0 108.326)" fill="#92d4f5"/>
            <rect id="사각형_7364" data-name="사각형 7364" width="46.781" height="4.241" transform="translate(82.612 108.326)" fill="#92d4f5"/>
            <rect id="사각형_7365" data-name="사각형 7365" width="46.781" height="4.241" transform="translate(0 116.332)" fill="#92d4f5"/>
            <rect id="사각형_7366" data-name="사각형 7366" width="46.781" height="4.241" transform="translate(82.612 116.332)" fill="#92d4f5"/>
            <g id="그룹_1765" data-name="그룹 1765" transform="translate(0 3.173)">
              <rect id="사각형_7367" data-name="사각형 7367" width="54.534" height="12.95" fill="#3784bf"/>
              <g id="그룹_1764" data-name="그룹 1764" transform="translate(3.069 3.124)">
                <path id="패스_8850" data-name="패스 8850" d="M1365.849,469.739a2.311,2.311,0,0,1-.6-.275,1.654,1.654,0,0,1-.483-.5,2.137,2.137,0,0,1-.224-.575,2.012,2.012,0,0,1-.056-.531,1.31,1.31,0,0,1,.118-.536,1.747,1.747,0,0,1,.3-.448,2.229,2.229,0,0,1,.426-.359,2.83,2.83,0,0,1,.512-.263,3.161,3.161,0,0,1,.556-.16,3.33,3.33,0,0,1,.551-.059c-.007-.141-.016-.277-.027-.409s-.021-.263-.032-.4-.017-.267-.023-.4a3.9,3.9,0,0,1,.008-.43,8.555,8.555,0,0,0-.962-.005,4.041,4.041,0,0,0-.817.128,3.281,3.281,0,0,0-.753.308,5.339,5.339,0,0,0-.77.534,4.977,4.977,0,0,0-.5.47,3.151,3.151,0,0,0-.43.586,3.386,3.386,0,0,0-.311.734,3.661,3.661,0,0,0-.14.912,4.785,4.785,0,0,0,.02.693,2.452,2.452,0,0,0,.139.59,2.709,2.709,0,0,0,.284.556,5.165,5.165,0,0,0,.456.59,2.837,2.837,0,0,0,.589.487,4.771,4.771,0,0,0,.861.438,6.142,6.142,0,0,0,1.046.3,4.792,4.792,0,0,0,1.146.089l.492-1.865c-.237-.023-.47-.047-.7-.071a3.607,3.607,0,0,1-.669-.133Z" transform="translate(-1362.189 -464.369)" stroke="#000" stroke-width="1"/>
                <path id="패스_8851" data-name="패스 8851" d="M1406.045,464.384a2.867,2.867,0,0,0-.433.024,1.511,1.511,0,0,0-.384.1q-.708,2.062-1.084,3.127c-.251.71-.4,1.1-.435,1.158l-1.855-4.487a4.536,4.536,0,0,0-.977.109,1.62,1.62,0,0,0-.657.305q.532,1.659.908,2.846t.593,1.9q.31.98.506,1.471t.27.516a3.057,3.057,0,0,0,.935.237,8.267,8.267,0,0,0,1.343.024c.1-.285.226-.622.364-1.009s.281-.8.43-1.235.3-.885.445-1.348.282-.914.4-1.353.224-.855.308-1.244a7.236,7.236,0,0,0,.154-1.028,3.31,3.31,0,0,0-.4-.081,3.368,3.368,0,0,0-.438-.036Z" transform="translate(-1395.109 -464.31)" stroke="#000" stroke-width="1"/>
              </g>
            </g>
            <g id="그룹_1766" data-name="그룹 1766" transform="translate(81.975)">
              <path id="패스_8852" data-name="패스 8852" d="M1970.729,417.45a21.37,21.37,0,1,0,21.368,21.37,21.37,21.37,0,0,0-21.368-21.37Z" transform="translate(-1949.359 -417.45)" fill="#3784bf"/>
              <circle id="타원_43" data-name="타원 43" cx="7.851" cy="7.851" r="7.851" transform="translate(13.519 7.735)" fill="#fff"/>
              <path id="패스_8853" data-name="패스 8853" d="M2016.113,564.35c-7.911,0-14.324,7.34-14.324,16.395,0,.379.011.753.032,1.123a21.372,21.372,0,0,0,28.581,0q.034-.554.034-1.123c0-9.055-6.413-16.395-14.324-16.395Z" transform="translate(-1994.744 -544.609)" fill="#fff"/>
            </g>
            <g id="그룹_1768" data-name="그룹 1768" transform="translate(0 25.264)">
              <path id="패스_8854" data-name="패스 8854" d="M1345.825,609.677l-1.528-3.1-1.529,3.1-3.418.5,2.474,2.412-.584,3.4,3.058-1.607,3.057,1.607-.584-3.4,2.474-2.412Z" transform="translate(-1339.35 -606.428)" fill="#fcce4d"/>
              <g id="그룹_1767" data-name="그룹 1767" transform="translate(11.015)">
                <path id="패스_8855" data-name="패스 8855" d="M1428.867,609.677l-1.529-3.1-1.529,3.1-3.419.5,2.474,2.412-.583,3.4,3.057-1.607,3.057,1.607-.583-3.4,2.473-2.412Z" transform="translate(-1422.246 -606.428)" fill="#a0a0a0"/>
                <path id="패스_8856" data-name="패스 8856" d="M1427.985,608.637l-1.574-3.188-1.573,3.188-3.518.511,2.545,2.482-.6,3.5,3.147-1.654,3.147,1.654-.6-3.5,2.545-2.482Zm1.395,6.252-2.969-1.56-2.968,1.56.567-3.306-2.4-2.341,3.319-.482,1.484-3.007,1.484,3.007,3.319.482-2.4,2.341Z" transform="translate(-1421.32 -605.45)"/>
              </g>
              <path id="패스_8857" data-name="패스 8857" d="M1511.916,609.677l-1.529-3.1-1.528,3.1-3.419.5,2.474,2.412-.584,3.4,3.057-1.607,3.059,1.607-.584-3.4,2.474-2.412Z" transform="translate(-1483.12 -606.428)" fill="#fcce4d"/>
              <path id="패스_8858" data-name="패스 8858" d="M1594.956,609.677l-1.528-3.1-1.529,3.1-3.419.5,2.474,2.412-.584,3.4,3.058-1.607,3.057,1.607-.585-3.4,2.474-2.412Z" transform="translate(-1555.001 -606.428)" fill="#fcce4d"/>
              <path id="패스_8859" data-name="패스 8859" d="M1678.005,609.677l-1.529-3.1-1.529,3.1-3.418.5,2.473,2.412-.583,3.4,3.057-1.607,3.057,1.607-.583-3.4,2.474-2.412Z" transform="translate(-1626.891 -606.428)" fill="#fcce4d"/>
            </g>
          </g>
        </g>
        <g id="그룹_1785" data-name="그룹 1785" transform="translate(397.514 68.056)">
          <path id="패스_8860" data-name="패스 8860" d="M3064.119,532.1H2982.11a8.654,8.654,0,0,0-8.65,8.658V589.78a5.925,5.925,0,0,0,5.922,5.928h87.465a5.925,5.925,0,0,0,5.922-5.928V540.758A8.655,8.655,0,0,0,3064.119,532.1Z" transform="translate(-2970.284 -528.524)" fill="#92d4f5"/>
          <g id="그룹_1784" data-name="그룹 1784">
            <path id="패스_8861" data-name="패스 8861" d="M2949.829,643.733a5.926,5.926,0,0,0,5.923,5.928h87.467a5.925,5.925,0,0,0,5.922-5.928V598.56h-99.312Z" transform="translate(-2949.829 -586.053)" fill="#fff"/>
            <path id="패스_8862" data-name="패스 8862" d="M3040.489,505.49h-82.009a8.655,8.655,0,0,0-8.65,8.658V518h99.312v-3.849a8.655,8.655,0,0,0-8.65-8.658Z" transform="translate(-2949.829 -505.49)" fill="#5b8fd2"/>
            <g id="그룹_1771" data-name="그룹 1771" transform="translate(7.089 5.761)">
              <path id="패스_8863" data-name="패스 8863" d="M3004.862,548.36a2.284,2.284,0,1,0,2.281,2.284A2.283,2.283,0,0,0,3004.862,548.36Z" transform="translate(-3002.58 -548.36)" fill="#323b5d"/>
              <path id="패스_8864" data-name="패스 8864" d="M3004.862,616.26a2.284,2.284,0,1,0,2.281,2.284A2.283,2.283,0,0,0,3004.862,616.26Z" transform="translate(-3002.58 -607.135)" fill="#a5cce3"/>
              <path id="패스_8865" data-name="패스 8865" d="M3011.366,555.24h-.026a1.261,1.261,0,0,0-1.26,1.26v9.119a1.261,1.261,0,0,0,1.26,1.26h.026a1.26,1.26,0,0,0,1.26-1.26V556.5A1.26,1.26,0,0,0,3011.366,555.24Z" transform="translate(-3009.072 -554.315)" fill="#32539b"/>
            </g>
            <g id="그룹_1772" data-name="그룹 1772" transform="translate(16.035 5.761)">
              <path id="패스_8866" data-name="패스 8866" d="M3071.431,548.36a2.284,2.284,0,1,0,2.281,2.284A2.283,2.283,0,0,0,3071.431,548.36Z" transform="translate(-3069.149 -548.36)" fill="#323b5d"/>
              <path id="패스_8867" data-name="패스 8867" d="M3071.431,616.26a2.284,2.284,0,1,0,2.281,2.284A2.283,2.283,0,0,0,3071.431,616.26Z" transform="translate(-3069.149 -607.135)" fill="#a5cce3"/>
              <rect id="사각형_7368" data-name="사각형 7368" width="2.545" height="11.64" rx="1.273" transform="translate(1.009 0.925)" fill="#32539b"/>
            </g>
            <g id="그룹_1773" data-name="그룹 1773" transform="translate(24.982 5.761)">
              <path id="패스_8868" data-name="패스 8868" d="M3138.012,548.36a2.284,2.284,0,1,0,2.282,2.284A2.283,2.283,0,0,0,3138.012,548.36Z" transform="translate(-3135.73 -548.36)" fill="#323b5d"/>
              <path id="패스_8869" data-name="패스 8869" d="M3138.012,616.26a2.284,2.284,0,1,0,2.282,2.284A2.283,2.283,0,0,0,3138.012,616.26Z" transform="translate(-3135.73 -607.135)" fill="#a5cce3"/>
              <path id="패스_8870" data-name="패스 8870" d="M3144.5,555.24h.026a1.262,1.262,0,0,1,1.26,1.26v9.121a1.261,1.261,0,0,1-1.26,1.26h-.026a1.261,1.261,0,0,1-1.26-1.26V556.5A1.261,1.261,0,0,1,3144.5,555.24Z" transform="translate(-3142.231 -554.315)" fill="#32539b"/>
            </g>
            <g id="그룹_1774" data-name="그룹 1774" transform="translate(33.929 5.761)">
              <path id="패스_8871" data-name="패스 8871" d="M3204.591,548.36a2.284,2.284,0,1,0,2.282,2.284A2.283,2.283,0,0,0,3204.591,548.36Z" transform="translate(-3202.309 -548.36)" fill="#323b5d"/>
              <path id="패스_8872" data-name="패스 8872" d="M3204.591,616.26a2.284,2.284,0,1,0,2.282,2.284A2.283,2.283,0,0,0,3204.591,616.26Z" transform="translate(-3202.309 -607.135)" fill="#a5cce3"/>
              <path id="패스_8873" data-name="패스 8873" d="M3211.1,555.24h-.026a1.26,1.26,0,0,0-1.26,1.26v9.119a1.261,1.261,0,0,0,1.26,1.26h.026a1.261,1.261,0,0,0,1.26-1.26V556.5A1.26,1.26,0,0,0,3211.1,555.24Z" transform="translate(-3208.802 -554.315)" fill="#32539b"/>
            </g>
            <g id="그룹_1775" data-name="그룹 1775" transform="translate(42.875 5.761)">
              <ellipse id="타원_44" data-name="타원 44" cx="2.282" cy="2.285" rx="2.282" ry="2.285" fill="#323b5d"/>
              <ellipse id="타원_45" data-name="타원 45" cx="2.282" cy="2.285" rx="2.282" ry="2.285" transform="translate(0 9.125)" fill="#a5cce3"/>
              <path id="패스_8874" data-name="패스 8874" d="M3277.676,555.24h-.025a1.261,1.261,0,0,0-1.261,1.26v9.119a1.261,1.261,0,0,0,1.261,1.26h.025a1.26,1.26,0,0,0,1.26-1.26V556.5A1.26,1.26,0,0,0,3277.676,555.24Z" transform="translate(-3275.38 -554.315)" fill="#32539b"/>
            </g>
            <g id="그룹_1776" data-name="그룹 1776" transform="translate(51.822 5.761)">
              <path id="패스_8875" data-name="패스 8875" d="M3337.742,548.36a2.284,2.284,0,1,0,2.282,2.284A2.283,2.283,0,0,0,3337.742,548.36Z" transform="translate(-3335.46 -548.36)" fill="#323b5d"/>
              <path id="패스_8876" data-name="패스 8876" d="M3337.742,616.26a2.284,2.284,0,1,0,2.282,2.284A2.283,2.283,0,0,0,3337.742,616.26Z" transform="translate(-3335.46 -607.135)" fill="#a5cce3"/>
              <rect id="사각형_7369" data-name="사각형 7369" width="2.545" height="11.64" rx="1.273" transform="translate(1.009 0.925)" fill="#32539b"/>
            </g>
            <g id="그룹_1777" data-name="그룹 1777" transform="translate(60.769 5.761)">
              <path id="패스_8877" data-name="패스 8877" d="M3404.322,548.36a2.284,2.284,0,1,0,2.282,2.284A2.283,2.283,0,0,0,3404.322,548.36Z" transform="translate(-3402.04 -548.36)" fill="#323b5d"/>
              <path id="패스_8878" data-name="패스 8878" d="M3404.322,616.26a2.284,2.284,0,1,0,2.282,2.284A2.283,2.283,0,0,0,3404.322,616.26Z" transform="translate(-3402.04 -607.135)" fill="#a5cce3"/>
              <path id="패스_8879" data-name="패스 8879" d="M3410.826,555.24h-.025a1.26,1.26,0,0,0-1.26,1.26v9.119a1.261,1.261,0,0,0,1.26,1.26h.025a1.261,1.261,0,0,0,1.26-1.26V556.5A1.26,1.26,0,0,0,3410.826,555.24Z" transform="translate(-3408.532 -554.315)" fill="#32539b"/>
            </g>
            <g id="그룹_1778" data-name="그룹 1778" transform="translate(69.715 5.761)">
              <path id="패스_8880" data-name="패스 8880" d="M3470.892,548.36a2.284,2.284,0,1,0,2.282,2.284A2.283,2.283,0,0,0,3470.892,548.36Z" transform="translate(-3468.61 -548.36)" fill="#323b5d"/>
              <path id="패스_8881" data-name="패스 8881" d="M3470.892,616.26a2.284,2.284,0,1,0,2.282,2.284A2.283,2.283,0,0,0,3470.892,616.26Z" transform="translate(-3468.61 -607.135)" fill="#a5cce3"/>
              <path id="패스_8882" data-name="패스 8882" d="M3477.38,555.24h.026a1.261,1.261,0,0,1,1.261,1.26v9.121a1.261,1.261,0,0,1-1.261,1.26h-.026a1.261,1.261,0,0,1-1.26-1.26V556.5A1.261,1.261,0,0,1,3477.38,555.24Z" transform="translate(-3475.111 -554.315)" fill="#32539b"/>
            </g>
            <g id="그룹_1779" data-name="그룹 1779" transform="translate(78.662 5.761)">
              <path id="패스_8883" data-name="패스 8883" d="M3537.471,548.36a2.284,2.284,0,1,0,2.282,2.284A2.283,2.283,0,0,0,3537.471,548.36Z" transform="translate(-3535.189 -548.36)" fill="#323b5d"/>
              <path id="패스_8884" data-name="패스 8884" d="M3537.471,616.26a2.284,2.284,0,1,0,2.282,2.284A2.283,2.283,0,0,0,3537.471,616.26Z" transform="translate(-3535.189 -607.135)" fill="#a5cce3"/>
              <path id="패스_8885" data-name="패스 8885" d="M3543.986,555.24h-.025a1.261,1.261,0,0,0-1.261,1.26v9.119a1.261,1.261,0,0,0,1.261,1.26h.025a1.26,1.26,0,0,0,1.26-1.26V556.5A1.26,1.26,0,0,0,3543.986,555.24Z" transform="translate(-3541.69 -554.315)" fill="#32539b"/>
            </g>
            <g id="그룹_1780" data-name="그룹 1780" transform="translate(87.609 5.761)">
              <path id="패스_8886" data-name="패스 8886" d="M3604.052,548.36a2.284,2.284,0,1,0,2.282,2.284A2.283,2.283,0,0,0,3604.052,548.36Z" transform="translate(-3601.77 -548.36)" fill="#323b5d"/>
              <path id="패스_8887" data-name="패스 8887" d="M3604.052,616.26a2.284,2.284,0,1,0,2.282,2.284A2.283,2.283,0,0,0,3604.052,616.26Z" transform="translate(-3601.77 -607.135)" fill="#a5cce3"/>
              <rect id="사각형_7370" data-name="사각형 7370" width="2.545" height="11.64" rx="1.273" transform="translate(1.009 0.925)" fill="#32539b"/>
            </g>
            <g id="그룹_1781" data-name="그룹 1781" transform="translate(8.334 23.262)">
              <rect id="사각형_7371" data-name="사각형 7371" width="8.888" height="8.895" fill="#d9ecff"/>
              <rect id="사각형_7372" data-name="사각형 7372" width="8.888" height="8.895" transform="translate(12.292)" fill="#d9ecff"/>
              <rect id="사각형_7373" data-name="사각형 7373" width="8.888" height="8.895" transform="translate(24.584)" fill="#d9ecff"/>
              <rect id="사각형_7374" data-name="사각형 7374" width="8.888" height="8.895" transform="translate(36.877)" fill="#d9ecff"/>
              <rect id="사각형_7375" data-name="사각형 7375" width="8.888" height="8.895" transform="translate(49.169)" fill="#d9ecff"/>
              <rect id="사각형_7376" data-name="사각형 7376" width="8.888" height="8.895" transform="translate(61.463)" fill="#d9ecff"/>
              <rect id="사각형_7377" data-name="사각형 7377" width="8.888" height="8.895" transform="translate(73.755)" fill="#d9ecff"/>
            </g>
            <g id="그룹_1782" data-name="그룹 1782" transform="translate(8.334 35.379)">
              <rect id="사각형_7378" data-name="사각형 7378" width="8.888" height="8.895" fill="#d9ecff"/>
              <rect id="사각형_7379" data-name="사각형 7379" width="8.888" height="8.895" transform="translate(12.292)" fill="#d9ecff"/>
              <rect id="사각형_7380" data-name="사각형 7380" width="8.888" height="8.895" transform="translate(24.584)" fill="#d9ecff"/>
              <rect id="사각형_7381" data-name="사각형 7381" width="8.888" height="8.895" transform="translate(36.877)" fill="#d9ecff"/>
              <rect id="사각형_7382" data-name="사각형 7382" width="8.888" height="8.895" transform="translate(49.169)" fill="#d9ecff"/>
              <rect id="사각형_7383" data-name="사각형 7383" width="8.888" height="8.895" transform="translate(61.463)" fill="#d9ecff"/>
              <rect id="사각형_7384" data-name="사각형 7384" width="8.888" height="8.895" transform="translate(73.755)" fill="#d9ecff"/>
            </g>
            <g id="그룹_1783" data-name="그룹 1783" transform="translate(8.334 47.496)">
              <rect id="사각형_7385" data-name="사각형 7385" width="8.888" height="8.895" fill="#d9ecff"/>
              <rect id="사각형_7386" data-name="사각형 7386" width="8.888" height="8.895" transform="translate(12.292)" fill="#d9ecff"/>
              <rect id="사각형_7387" data-name="사각형 7387" width="8.888" height="8.895" transform="translate(24.584)" fill="#d9ecff"/>
              <rect id="사각형_7388" data-name="사각형 7388" width="8.888" height="8.895" transform="translate(36.877)" fill="#d9ecff"/>
              <rect id="사각형_7389" data-name="사각형 7389" width="8.888" height="8.895" transform="translate(49.169)" fill="#d9ecff"/>
              <rect id="사각형_7390" data-name="사각형 7390" width="8.888" height="8.895" transform="translate(61.463)" fill="#d9ecff"/>
              <rect id="사각형_7391" data-name="사각형 7391" width="8.888" height="8.895" transform="translate(73.755)" fill="#d9ecff"/>
            </g>
          </g>
        </g>
        <g id="그룹_1786" data-name="그룹 1786" transform="translate(229.514)">
          <path id="패스_8888" data-name="패스 8888" d="M1767.983,159.77a35.867,35.867,0,1,0,2.729,4.545A34.726,34.726,0,0,0,1767.983,159.77Zm-.851,27.562a29.18,29.18,0,1,1-21.426-35.269A29.18,29.18,0,0,1,1767.133,187.332Z" transform="translate(-1703.003 -125.194)" fill="#444"/>
          <path id="패스_8889" data-name="패스 8889" d="M1788.19,194.541a29.18,29.18,0,1,0,21.426,35.269A29.18,29.18,0,0,0,1788.19,194.541Z" transform="translate(-1745.486 -167.672)" fill="#fff" opacity="0.59"/>
          <path id="패스_8890" data-name="패스 8890" d="M2232.1.532,2186.56,34.583a34.724,34.724,0,0,1,2.729,4.546l45.975-34.371A2.638,2.638,0,1,0,2232.1.533Z" transform="translate(-2121.578 -0.007)" fill="#444"/>
          <path id="패스_8891" data-name="패스 8891" d="M1785.537,302.167c-3.533,3.675-5.184,9.24-4.777,16.1a39.6,39.6,0,0,0,1.66,9.223,1.109,1.109,0,0,0,2.1-.7c-.05-.152-4.925-15.242,2.611-23.083a1.108,1.108,0,0,0-1.6-1.536Z" transform="translate(-1770.258 -261.269)" fill="#e3f0fe"/>
        </g>
        <g id="그룹_1794" data-name="그룹 1794" transform="translate(373.728 153.659)">
          <g id="그룹_1793" data-name="그룹 1793">
            <g id="그룹_1788" data-name="그룹 1788" transform="translate(22.412 47.225)">
              <path id="패스_8892" data-name="패스 8892" d="M2964.291,1508.783a44.554,44.554,0,0,0-8.629-6.824q-8.024-5.326-16.052-10.659c2.766,4.35,2.942,9.859,2.344,14.979s-1.882,10.194-1.728,15.345a15.457,15.457,0,0,0,1.341,6.3,4.75,4.75,0,0,0,1.948,2.255c1.557.805,3.511.1,4.85-1.033s2.306-2.65,3.59-3.845a6.951,6.951,0,0,1,1.984-1.309,4.575,4.575,0,0,1,1.26-.341,3.429,3.429,0,0,1,1.534.156,16.407,16.407,0,0,1,2.521,1.547,5.37,5.37,0,0,0,5.923-.529,10.54,10.54,0,0,0,2.736-4.764,8.765,8.765,0,0,0,.695-3.05,7.158,7.158,0,0,0-.722-2.736,20.676,20.676,0,0,0-3.6-5.488Z" transform="translate(-2939.61 -1491.3)" fill="#17574d"/>
              <path id="패스_8893" data-name="패스 8893" d="M3048.015,1733.637c-.115-.507-.329-1.066-.485-1.607a4.585,4.585,0,0,0-1.26.341,12.739,12.739,0,0,1,1.095,3.518c2.89,9.958,4.926,18.461,6.767,27.841a70.291,70.291,0,0,1,.895,21.16c.449-.107.9-.212,1.351-.32a106.864,106.864,0,0,0-1.817-24.273c-1.534-8.67-5.255-20.819-6.545-26.659Z" transform="translate(-3031.936 -1699.68)" fill="#003d35"/>
              <g id="그룹_1787" data-name="그룹 1787" transform="translate(4.091 5.479)">
                <path id="패스_8894" data-name="패스 8894" d="M2971.487,1533.825c-.317-.5-.649-.99-.988-1.476A6.978,6.978,0,0,0,2971.487,1533.825Z" transform="translate(-2970.439 -1532.312)" fill="#5d5d5d"/>
                <path id="패스_8895" data-name="패스 8895" d="M2970.049,1532.137a7.058,7.058,0,0,0,1,1.49l.107-.079c-.283-.447-.607-.931-.989-1.478Z" transform="translate(-2970.049 -1532.07)"/>
              </g>
            </g>
            <path id="패스_8896" data-name="패스 8896" d="M3143.569,1731a2.042,2.042,0,0,0-.6.906c-2.021,4.863-2.21,10.264-2.387,15.528q-.6,17.966-1.447,35.924l1.037-.173c-.588-1.864.477-16.037.626-18.851.156-2.934.253-5.869.349-8.8.166-5.013.066-10.138.784-15.107a50.2,50.2,0,0,1,2.629-9.385.751.751,0,0,0-.995-.036Z" transform="translate(-3089.914 -1651.416)" fill="#003d35"/>
            <g id="그룹_1789" data-name="그룹 1789" transform="translate(51.669 60.891)">
              <path id="패스_8897" data-name="패스 8897" d="M3162.823,1594.911a7.138,7.138,0,0,0-.93,3.844q-.124,2.514-.245,5.028l-1.364-2.364a57.681,57.681,0,0,0,.29,7.43,5.672,5.672,0,0,1-2.435-2.354q.306,2.445.613,4.89a4.816,4.816,0,0,0,.531,1.949,1.648,1.648,0,0,0,1.7.844,10.184,10.184,0,0,1,3.944-7.562,20.115,20.115,0,0,1-2.108-11.706Z" transform="translate(-3158.03 -1594.653)" fill="#767676"/>
              <path id="패스_8898" data-name="패스 8898" d="M3162.18,1593.266l.033-.266-.154.219a7.252,7.252,0,0,0-.942,3.88l-.074,1.514q-.08,1.643-.16,3.284l-1.368-2.372-.007.239a57.8,57.8,0,0,0,.278,7.316,5.62,5.62,0,0,1-2.3-2.27l-.171-.314.658,5.245a4.9,4.9,0,0,0,.541,1.976,1.827,1.827,0,0,0,1.459.914,1.291,1.291,0,0,0,.316-.039l.048-.012,0-.05a10.072,10.072,0,0,1,3.917-7.511l.044-.035-.026-.05a20.074,20.074,0,0,1-2.1-11.666Zm-1.967,19.2a1.614,1.614,0,0,1-1.581-.825,4.811,4.811,0,0,1-.521-1.922l-.573-4.564a5.76,5.76,0,0,0,2.3,2.1l.11.055-.012-.122a57.757,57.757,0,0,1-.3-7.183l1.357,2.354.011-.228q.087-1.756.171-3.513l.074-1.514a7.731,7.731,0,0,1,.762-3.569,20.224,20.224,0,0,0,2.122,11.409,10.208,10.208,0,0,0-3.922,7.527Z" transform="translate(-3157.319 -1593)"/>
            </g>
            <g id="그룹_1790" data-name="그룹 1790" transform="translate(44.942 28.671)">
              <path id="패스_8899" data-name="패스 8899" d="M3161.793,1353.311c-7.453,6.636-18.192,8.188-26.359,13.945a61.567,61.567,0,0,0-8.106,7.371c-2.98,3.083-5.982,6.146-8.963,9.23a54.131,54.131,0,0,0-8.146,9.8,18.256,18.256,0,0,0-2.756,12.21,3.916,3.916,0,0,0,.593,1.654c.98,1.348,3.063,1.266,4.533.511,1.328-.695,2.43-1.777,3.756-2.471a2.6,2.6,0,0,1,.409-.2c-.531,2.654,2.7,4.819,5.35,4.328,2.654-.469,4.675-2.593,6.472-4.614a75.762,75.762,0,0,0,8.657-11.271c2.41-4.022,4.145-8.412,6.473-12.495,5.513-9.719,14.211-17.62,18.171-28.074-.02.021-.06.041-.082.082Z" transform="translate(-3107.264 -1353.23)" fill="#26796b"/>
              <path id="패스_8900" data-name="패스 8900" d="M3220.279,1353.32a36.117,36.117,0,0,1-8.473,8.248c-3,2.1-6.33,3.736-8.964,6.269-2.287,2.225-3.94,5-6,7.433-3.308,3.88-7.636,6.819-10.618,10.944-2.268,3.145-3.635,6.86-5.941,9.985-2.185,2.961-5.309,5.819-5.453,9.372a2.579,2.579,0,0,1,.409-.2c-.531,2.654,2.7,4.819,5.35,4.328,2.654-.469,4.674-2.594,6.472-4.615a75.794,75.794,0,0,0,8.657-11.271c2.409-4.022,4.144-8.412,6.473-12.495,5.512-9.719,14.211-17.62,18.171-28.074-.02.02-.061.04-.082.082Z" transform="translate(-3165.749 -1353.239)" fill="#2b8677"/>
            </g>
            <g id="그룹_1791" data-name="그룹 1791" transform="translate(18.907)">
              <path id="패스_8901" data-name="패스 8901" d="M2938.823,1139.881c-.062.02-.1.02-.163.041-4.042.981-6.145,5.41-7.677,9.29q-6.708,17.182-13.394,34.363c-2.859,7.268-5.716,15.395-2.92,22.683a10.954,10.954,0,0,0,5.084,6.043,6.772,6.772,0,0,0,7.533-.96c2.062-2.1,2.1-5.39,3.042-8.188a6.91,6.91,0,0,1,3.7-4.022,2.956,2.956,0,0,1,2.92.326c1.1.837,1.47,2.307,2.185,3.491.694,1.205,2.307,2.205,3.409,1.368,4.165-10.087,1.919-21.582-.755-32.178-2.655-10.6-5.7-21.684-2.961-32.26Z" transform="translate(-2913.525 -1139.88)" fill="#328f80"/>
              <path id="패스_8902" data-name="패스 8902" d="M3054.819,1139.89c-.062.02-.1.02-.162.04a38.228,38.228,0,0,0-5.595,11.495,38.733,38.733,0,0,0-1.532,10.251c-.1,11.6,5.084,23.113,2.94,34.505-.02.062-.02.1-.042.164a18.991,18.991,0,0,0-.408,2.8,2.955,2.955,0,0,1,2.92.327c1.1.837,1.47,2.307,2.185,3.491.693,1.205,2.307,2.205,3.409,1.368,4.164-10.087,1.918-21.582-.756-32.178C3055.126,1161.554,3052.083,1150.466,3054.819,1139.89Z" transform="translate(-3029.521 -1139.889)" fill="#39a08f"/>
            </g>
            <g id="그룹_1792" data-name="그룹 1792" transform="translate(0 73.135)">
              <path id="패스_8903" data-name="패스 8903" d="M2806.236,1703.151c-4.742-4.627-10.365-8.232-15.944-11.8-3.15-2.017-6.356-4.06-9.949-5.1-2.528-.731-5.3-.71-7.513-2.13,3.266,3.095,7.917,3.929,11.918,5.988,5.546,2.856,9.884,7.554,14.066,12.183,1.95,2.158,3.952,4.431,4.734,7.233.578-.783,1.812-.425,2.661.054a27.458,27.458,0,0,1,7.419,6.1c-.756-4.876-3.858-9.083-7.391-12.53Z" transform="translate(-2772.83 -1684.119)" fill="#2b8677"/>
              <path id="패스_8904" data-name="패스 8904" d="M2812.906,1722.2a37.315,37.315,0,0,0-4.887-8.581c-6.367-9.177-13.147-18.721-23.127-23.737-.814-.408-1.643-.785-2.474-1.16q-1.143-.517-2.287-1.034c-2.441-1.1-4.85-2.477-7.29-3.582,4.778,3.351,10.6,5.168,15.395,8.5a37.57,37.57,0,0,1,4.515,3.8,76.138,76.138,0,0,1,8.271,9.334c2.7,3.6,5.055,7.447,7.41,11.28a28.3,28.3,0,0,1,5.658,15.606q.564,5.388,1.129,10.778l1.275-.179q-1-7.271-2.141-14.52a36.269,36.269,0,0,0-1.448-6.5Z" transform="translate(-2772.839 -1684.11)" fill="#003d35"/>
            </g>
            <path id="패스_8905" data-name="패스 8905" d="M3066.089,1639.563a51.319,51.319,0,0,0-1.037-12.747c-.868-4.156.163-8.4-.756-12.543-.313-1.408-.613-2.821-.85-4.245-.307-1.847-.5-3.709-.7-5.569q-1.351-12.758-2.7-25.515a58.261,58.261,0,0,1-.464-7.206c-.41-.113-.812.367-1.221.255.971,24.519,7.048,48.719,6.709,73.256l1.239.25a19.871,19.871,0,0,1-.219-5.936Z" transform="translate(-3019.989 -1513.689)" fill="#003d35"/>
          </g>
          <path id="패스_8906" data-name="패스 8906" d="M2949.832,1994.181l.488,2.356,5.228,25.847h29.064l5.227-25.847.46-2.356,2.211-10.941H2947.62Z" transform="translate(-2924.131 -1869.907)" fill="#fcce4d"/>
          <path id="패스_8907" data-name="패스 8907" d="M2988.689,1983.24l1.83,10.941.4,2.356,4.323,25.847h10.208l-.53-39.144Z" transform="translate(-2959.681 -1869.907)" fill="#fff" opacity="0.4"/>
          <rect id="사각형_7392" data-name="사각형 7392" width="44.874" height="10.937" transform="translate(23.504 113.346)" fill="#fcce4d"/>
          <rect id="사각형_7393" data-name="사각형 7393" width="14.958" height="10.937" transform="translate(29.008 113.346)" fill="#fff" opacity="0.4"/>
          <path id="패스_8908" data-name="패스 8908" d="M2964.567,2067.015h39.518l.46-2.355H2964.08Z" transform="translate(-2938.379 -1940.386)" fill="#f39046"/>
        </g>
        <g id="그룹_1828" data-name="그룹 1828" transform="translate(109.351 29.392)">
          <g id="그룹_1799" data-name="그룹 1799" transform="translate(147.302 98.143)">
            <g id="그룹_1797" data-name="그룹 1797" transform="translate(4.173 1.468)">
              <path id="패스_8909" data-name="패스 8909" d="M1953.076,959.864l-8.83-1.224-2.668,2.087s-3.725,1.2-3.453,2.486a2.672,2.672,0,0,0,1.7,1.75s-2.888-.351-2.98,1.566,3.274,2.556,3.274,2.556-3.848.875-.66,2.339,5.633.559,6.061-.008-.5-1.524-.5-1.524a11.4,11.4,0,0,0,11.229-1.555c5.269-4.229-3.172-8.471-3.172-8.471Z" transform="translate(-1936.846 -958.64)" fill="#f9c0c0"/>
              <g id="그룹_1795" data-name="그룹 1795" transform="translate(2.649 5.307)">
                <path id="패스_8910" data-name="패스 8910" d="M1963.719,998.668a.316.316,0,0,0-.18.408,1.745,1.745,0,0,1-.04,1.273,1.678,1.678,0,0,1-1.154.775c-1.99.5-4.75-1.565-4.778-1.587a.3.3,0,0,0-.442.06.316.316,0,0,0,.06.442c.123.094,3.031,2.275,5.316,1.7a2.615,2.615,0,0,0,1.208-.626,1.867,1.867,0,0,0,.355-.477,2.362,2.362,0,0,0,.063-1.787.313.313,0,0,0-.407-.178Z" transform="translate(-1956.993 -998.578)"/>
                <path id="패스_8911" data-name="패스 8911" d="M1963.555,998.164a.379.379,0,0,0-.292-.005.387.387,0,0,0-.219.5,1.666,1.666,0,0,1-.036,1.217,1.609,1.609,0,0,1-1.111.74c-1.955.5-4.694-1.555-4.721-1.575a.38.38,0,0,0-.288-.079.373.373,0,0,0-.249.152.384.384,0,0,0,.072.536,11.311,11.311,0,0,0,1.86,1.109,6.4,6.4,0,0,0,2.67.7,3.433,3.433,0,0,0,.844-.1,2.706,2.706,0,0,0,1.239-.642,1.932,1.932,0,0,0,.367-.495,2.431,2.431,0,0,0,.066-1.842.382.382,0,0,0-.2-.211Zm.016,1.992a1.8,1.8,0,0,1-.341.459,2.559,2.559,0,0,1-1.177.609c-2.277.576-5.229-1.662-5.258-1.685a.248.248,0,0,1-.047-.348.239.239,0,0,1,.16-.1l.032,0a.253.253,0,0,1,.155.055,8.526,8.526,0,0,0,4.146,1.681,2.8,2.8,0,0,0,.689-.082,1.739,1.739,0,0,0,1.2-.809,1.8,1.8,0,0,0,.043-1.328.25.25,0,0,1,.143-.323.246.246,0,0,1,.32.141A2.288,2.288,0,0,1,1963.571,1000.156Z" transform="translate(-1956.562 -998.132)"/>
              </g>
              <g id="그룹_1796" data-name="그룹 1796" transform="translate(1.541 7.775)">
                <path id="패스_8912" data-name="패스 8912" d="M1955.086,1017.076a.337.337,0,0,0-.038.445,1.837,1.837,0,0,1,.117,2.274.487.487,0,0,1-.049.054c-.754.734-3.974-.055-5.875-.744a.311.311,0,0,0-.4.189.315.315,0,0,0,.189.4c.886.321,5.275,1.824,6.538.594a.874.874,0,0,0,.094-.1,2.432,2.432,0,0,0-.132-3.073.314.314,0,0,0-.444-.036Z" transform="translate(-1948.752 -1016.934)"/>
                <path id="패스_8913" data-name="패스 8913" d="M1954.884,1016.5a.389.389,0,0,0-.282.093.406.406,0,0,0-.042.535,1.778,1.778,0,0,1,.115,2.19.353.353,0,0,1-.042.046c-.318.31-1.165.36-2.448.144a20.48,20.48,0,0,1-3.357-.9.383.383,0,0,0-.3.013.372.372,0,0,0-.194.216.382.382,0,0,0,.23.49,17.181,17.181,0,0,0,4.893,1.07,2.451,2.451,0,0,0,1.713-.492,1.315,1.315,0,0,0,.1-.11,2.5,2.5,0,0,0-.133-3.159.378.378,0,0,0-.259-.134Zm.287,3.209a.959.959,0,0,1-.088.1h0c-1.236,1.2-5.605-.3-6.468-.609a.247.247,0,0,1-.141-.129.244.244,0,0,1-.008-.189.237.237,0,0,1,.125-.14.244.244,0,0,1,.106-.024.268.268,0,0,1,.086.015c1.962.711,5.163,1.49,5.945.73a.457.457,0,0,0,.054-.061,1.911,1.911,0,0,0-.118-2.358.266.266,0,0,1,.03-.349.247.247,0,0,1,.18-.058.244.244,0,0,1,.168.087,2.365,2.365,0,0,1,.13,2.989Z" transform="translate(-1948.315 -1016.5)"/>
              </g>
            </g>
            <g id="그룹_1798" data-name="그룹 1798">
              <path id="패스_8914" data-name="패스 8914" d="M1927.554,950.369c-.649.29-.3,1.578-.3,1.578a11.4,11.4,0,0,0-10.584-4.06c-6.656,1.16-1.313,8.95-1.313,8.95l7.142,5.335,3.344-.54s3.842.746,4.225-.509a2.667,2.667,0,0,0-.647-2.354s2.36,1.7,3.365.068-1.633-3.818-1.633-3.818,3.792,1.091,1.707-1.731-4.663-3.209-5.312-2.919Z" transform="translate(-1912.319 -947.719)" fill="#ffd4d3"/>
              <path id="패스_8915" data-name="패스 8915" d="M1917.787,989.779s-.67-4.693-2.887-7.108-8.193-1.312-8.193-1.312l-.917,6.093s5.166,3.455,6.782,4.82,4.535,2.383,5.492,1.907,4.885-1.431,4.308-2.963-4.586-1.437-4.586-1.437Z" transform="translate(-1905.79 -976.621)" fill="#ffd4d3"/>
            </g>
          </g>
          <path id="패스_8916" data-name="패스 8916" d="M1961.512,939.76c-1.958-.392-4.834.094-5.406.922s-3.381,3.405-2.206,4.409,4.444-.9,4.444-.9,2.695,3.574,5.627,4.562,7.365-2.643,7.365-2.643l-2.022-5.453S1963.47,940.153,1961.512,939.76Z" transform="translate(-1799.886 -842.574)" fill="#f9c0c0"/>
          <g id="그룹_1816" data-name="그룹 1816" transform="translate(166.768)">
            <g id="그룹_1815" data-name="그룹 1815" transform="translate(23.197)">
              <g id="그룹_1802" data-name="그룹 1802" transform="translate(0 244.155)">
                <g id="그룹_1800" data-name="그룹 1800" transform="translate(18.259)">
                  <path id="패스_8917" data-name="패스 8917" d="M2379.464,2035.482l-17.683-2.882-2.1,23.78,19.784.609S2379.943,2033.194,2379.464,2035.482Z" transform="translate(-2359.606 -2032.522)" fill="#d0d0d0"/>
                  <path id="패스_8918" data-name="패스 8918" d="M2379.056,2034.759c-.073-.008-.1.066-.121.145l-17.691-2.884-2.107,23.853-.007.072,19.922.612v-.068c0-.054.111-5.467.172-10.815.125-10.881-.052-10.9-.169-10.915Zm-.134,21.658-19.646-.6,2.089-23.638,17.675,2.881,0-.01C2379.259,2036.823,2379.035,2050.809,2378.921,2056.417Z" transform="translate(-2359.129 -2032.02)"/>
                </g>
                <g id="그룹_1801" data-name="그룹 1801" transform="translate(0 17.851)">
                  <path id="패스_8919" data-name="패스 8919" d="M2232.577,2171.214l-9.034,7.051a.728.728,0,0,0,.423,1.3l38.468,1.3.513-15.255-22.224-.749Z" transform="translate(-2223.26 -2164.859)" fill="#3b3b3b"/>
                  <rect id="사각형_7394" data-name="사각형 7394" width="2.95" height="38.947" transform="matrix(0.034, -0.999, 0.999, 0.034, 0.163, 17.489)" fill="#141414"/>
                </g>
              </g>
              <g id="그룹_1806" data-name="그룹 1806" transform="translate(46.472 174.926)">
                <g id="그룹_1803" data-name="그룹 1803" transform="translate(0.88)">
                  <path id="패스_8920" data-name="패스 8920" d="M2576.129,1606.564l19.743,1.4.324-23.872.763-56.218.127-9.379-20.958-1.121Z" transform="translate(-2576.062 -1517.308)" fill="#d0d0d0"/>
                  <path id="패스_8921" data-name="패스 8921" d="M2575.63,1606.168l19.876,1.412,1.088-80.159.129-9.443-21.094-1.129Zm.134-89.176,20.824,1.114-1.214,89.331-19.61-1.393Z" transform="translate(-2575.63 -1516.85)"/>
                </g>
                <g id="그룹_1804" data-name="그룹 1804" transform="translate(0.879 0.001)">
                  <path id="패스_8922" data-name="패스 8922" d="M2576.129,1526.492c7.91,6.168,16.935,3.141,20.831,1.379l.127-9.379-20.958-1.122Z" transform="translate(-2576.061 -1517.302)" fill="#a3a3a3"/>
                  <path id="패스_8923" data-name="패스 8923" d="M2575.621,1526.084l.026.02a17.229,17.229,0,0,0,10.848,3.708c.369,0,.742-.011,1.117-.031a25.65,25.65,0,0,0,8.934-2.29l.039-.017.129-9.485-21.094-1.129v9.225Zm.134-9.083,20.824,1.114-.126,9.271c-10.416,4.694-17.428,1.17-20.7-1.368Z" transform="translate(-2575.62 -1516.86)"/>
                </g>
                <g id="그룹_1805" data-name="그룹 1805" transform="translate(0 86.768)">
                  <path id="패스_8924" data-name="패스 8924" d="M2608.046,2176.507l-8.792-7.352-7.929-6.625H2569.09v15.263h38.49A.727.727,0,0,0,2608.046,2176.507Z" transform="translate(-2569.089 -2162.53)" fill="#3b3b3b"/>
                  <rect id="사각형_7395" data-name="사각형 7395" width="38.947" height="2.95" transform="translate(0 15.103)" fill="#141414"/>
                </g>
              </g>
              <path id="패스_8925" data-name="패스 8925" d="M2353.282,941.99,2313.492,952.2l-1.17,4.222-8.922,148.588s9.064,4.3,12.335,4.785c3.174.473,18.264-.688,18.264-.688l.527-144.651,3.757,144.335s7.628,1.849,12.061,1.441c1.439-.133,6.62-1.441,6.62-1.441,3.035-.805,5.813-1.645,5.813-1.645l-.025-152.639-9.468-12.52Z" transform="translate(-2292.63 -844.315)" fill="#204184"/>
              <path id="패스_8926" data-name="패스 8926" d="M2410.751,941.99l-39.79,10.212-1.171,4.222c5.035.794,20.145-2.9,33.017-.382,12.4,2.43,15.456,2.829,15.758,9.022s-.825,140.5-4.135,143.729c3.036-.805,5.813-1.645,5.813-1.645l-.025-152.639Z" transform="translate(-2350.099 -844.315)" fill="#0d2558"/>
              <g id="그룹_1808" data-name="그룹 1808" transform="translate(25.498)">
                <g id="그룹_1807" data-name="그룹 1807" transform="translate(0 20.722)">
                  <path id="패스_8927" data-name="패스 8927" d="M2413.024,377.794c.411,5.27,8.195,3.67,8.195,3.67l-2.8-8.532S2412.612,372.522,2413.024,377.794Z" transform="translate(-2413.003 -372.925)" fill="#ffd4d3"/>
                  <path id="패스_8928" data-name="패스 8928" d="M2439.2,411.065l.391-.093a2.636,2.636,0,0,0-.364-.343,3.094,3.094,0,0,1-.026.434Z" transform="translate(-2435.679 -405.563)" fill="#ffa2a1"/>
                  <path id="패스_8929" data-name="패스 8929" d="M2429.488,395.292l-.044-.243a2.38,2.38,0,0,0-.418-.867,3.022,3.022,0,0,0-.68-.633,2.9,2.9,0,0,0-.814-.4,7.159,7.159,0,0,1,.646.6,4.457,4.457,0,0,1,.518.664,2.558,2.558,0,0,1,.3.739,1.633,1.633,0,0,1,.04.348,2.432,2.432,0,0,1,.364.343l-.391.093a3.132,3.132,0,0,0,.026-.434l-.079-.062a4.35,4.35,0,0,0-.486-.309c-.168-.09-.334-.176-.509-.249a4.12,4.12,0,0,0-.532-.192c.147.118.292.236.438.351s.29.228.429.347.28.232.408.355a3.137,3.137,0,0,1,.348.375l.312.421.079-.512.038-.242.018-.121v-.124C2429.494,395.456,2429.5,395.373,2429.488,395.292Z" transform="translate(-2425.491 -390.432)" fill="#ffa2a1"/>
                </g>
                <path id="패스_8930" data-name="패스 8930" d="M2499.32,503.956c.4,7.18,8.384,5.894,13.184-.069C2506.322,502.394,2499.32,503.956,2499.32,503.956Z" transform="translate(-2487.721 -465.007)" fill="#63e7e7"/>
                <rect id="사각형_7396" data-name="사각형 7396" width="10.253" height="10.459" transform="translate(12.41 34.979)" fill="#ffd4d3"/>
                <path id="패스_8931" data-name="패스 8931" d="M2505.35,484.021c1.665.109,7.321.2,10.253-3.185V479.03H2505.35Z" transform="translate(-2492.94 -444.049)" fill="#ffa2a1"/>
                <path id="패스_8932" data-name="패스 8932" d="M2463.134,264.376c-11.7-1.482-15.044,4.722-15.044,4.722s-6.368,25.64,9.992,26.135,14.879-18.009,14.879-18.009,1.866-11.365-9.827-12.848Z" transform="translate(-2442.319 -258.043)" fill="#ffd4d3"/>
                <path id="패스_8933" data-name="패스 8933" d="M2437.594,292.955s-3.569,3.925-2.388,11.667S2441.713,292.434,2437.594,292.955Z" transform="translate(-2432.014 -282.971)" fill="#4e4e4e"/>
                <path id="패스_8934" data-name="패스 8934" d="M2508.01,420.178c-.014-.024-.026-.05-.038-.075l-.1,0Z" transform="translate(-2495.122 -393.039)" fill="#f48183" stroke="#f48183" stroke-width="1"/>
                <path id="패스_8935" data-name="패스 8935" d="M2514.96,404.27c-.038.017-.074.036-.11.055v.117l.111-.172Z" transform="translate(-2501.164 -379.336)" fill="#f48183" stroke="#f48183" stroke-width="1"/>
                <path id="패스_8936" data-name="패스 8936" d="M2507.12,375.788c-.261-.011-.522-.027-.782-.034l-.68-.021a.653.653,0,0,0,.038.075l-.14-.078.1,0a.943.943,0,0,1-.108-.481,1.049,1.049,0,0,1,.213-.531,2.148,2.148,0,0,1,.45-.438,3.548,3.548,0,0,1,.545-.336l.111-.054v-.118c0-.411-.005-.822-.015-1.234s-.018-.822-.032-1.234-.034-.822-.055-1.234-.05-.822-.087-1.234c-.038.411-.063.822-.087,1.234s-.043.822-.056,1.234-.026.822-.032,1.234c-.009.372-.012.746-.013,1.118.036-.019.073-.038.11-.055l-.111.172v-.117a3.218,3.218,0,0,0-.511.321,2.5,2.5,0,0,0-.52.524,1.317,1.317,0,0,0-.265.731,1.333,1.333,0,0,0,.219.743l.051.081.089,0,.783-.025c.261-.007.521-.023.781-.034s.522-.03.782-.043.522-.038.783-.06c-.261-.024-.521-.043-.783-.061s-.521-.034-.782-.043Z" transform="translate(-2492.806 -348.667)" fill="#f48183" stroke="#f48183" stroke-width="1"/>
                <path id="패스_8937" data-name="패스 8937" d="M2510.07,431.963s.011.129.012.142a5.491,5.491,0,0,0,.389,1.652,1.67,1.67,0,0,0,.934.99,1.691,1.691,0,0,0,.671.07,2.624,2.624,0,0,0,2.377-1.86,2.23,2.23,0,0,0,.051-1c-.567-.112-4,.1-4.433.008Z" transform="translate(-2497.025 -403.273)" fill="#fff"/>
                <path id="패스_8938" data-name="패스 8938" d="M2463.91,348.282l5.292-.016S2466.373,345.579,2463.91,348.282Z" transform="translate(-2457.069 -329.828)"/>
                <path id="패스_8939" data-name="패스 8939" d="M2545.93,350.185l5.292-.015S2548.393,347.481,2545.93,350.185Z" transform="translate(-2528.067 -331.475)"/>
                <path id="패스_8940" data-name="패스 8940" d="M2458.445,402.11a2.156,2.156,0,1,0,2.156,2.156A2.155,2.155,0,0,0,2458.445,402.11Z" transform="translate(-2450.472 -377.466)" fill="#ffa2a1"/>
                <path id="패스_8941" data-name="패스 8941" d="M2573.875,402.11a2.156,2.156,0,1,0,2.155,2.156A2.155,2.155,0,0,0,2573.875,402.11Z" transform="translate(-2550.391 -377.466)" fill="#ffa2a1"/>
                <path id="패스_8942" data-name="패스 8942" d="M2476.406,367.26c-.617,0-1.116.79-1.116,1.763s.5,1.763,1.116,1.763,1.117-.79,1.117-1.763S2477.024,367.26,2476.406,367.26Z" transform="translate(-2466.92 -347.299)"/>
                <path id="패스_8943" data-name="패스 8943" d="M2558.427,367.26c-.617,0-1.117.79-1.117,1.763s.5,1.763,1.117,1.763,1.116-.79,1.116-1.763S2559.043,367.26,2558.427,367.26Z" transform="translate(-2537.917 -347.299)"/>
                <path id="패스_8944" data-name="패스 8944" d="M2441.538,222.779c-1.648-2.017-12.422-9.8-21.949,3.747,0,0,4.488,5.886,14.494,4.8a12.733,12.733,0,0,1-3.4,1.587c2.417.329,8.882,2.388,14.194-4.406,0,0-.749,9.483,1.771,14.589s7-1.857,6.479-8.264c-.736-9.146-5.244-11.307-11.585-12.049Z" transform="translate(-2418.704 -218.724)" fill="#4e4e4e"/>
                <path id="패스_8945" data-name="패스 8945" d="M2485.036,258.662c.228,0,.593-.437.647-.625.162-.57-.29-.868-.8-1.027a4.524,4.524,0,0,0-.831-.164,8.927,8.927,0,0,0-3.054.228,17.426,17.426,0,0,0-2.33.735c-4.52,1.751,4.4,1.158,4.4,1.158s-1.839.977-.826,1.279a18.023,18.023,0,0,0,6.2-.589c.7-.392-2.978-.99-3.4-1Z" transform="translate(-2468.738 -251.683)" fill="#5f5f5f"/>
                <path id="패스_8946" data-name="패스 8946" d="M2625.862,297.5s-.921-3.468-1.5-2.974,1.059,5.68,1.382,5.323.062-1.635.062-1.635,2.182,4.617,2.4,3.3-1.073-4.47-1.073-4.47C2625.989,294.666,2625.862,297.5,2625.862,297.5Z" transform="translate(-2595.855 -284.3)" fill="#5f5f5f"/>
                <path id="패스_8947" data-name="패스 8947" d="M2631.49,374.646a4.7,4.7,0,0,0-6.414-1.2,2.942,2.942,0,0,0-1.071,1.31s-.906,3.337.453,5.6a6.939,6.939,0,0,0,5.084.61,4.088,4.088,0,0,0,2.593-3.591,4.592,4.592,0,0,0-.289-2.06,3.456,3.456,0,0,0-.356-.673Z" transform="translate(-2595.394 -351.968)" fill="#ffd4d3"/>
                <path id="패스_8948" data-name="패스 8948" d="M2638.1,392.175a5.18,5.18,0,0,1,.9-.478,8.813,8.813,0,0,1,1.013-.34,3.526,3.526,0,0,0-1.1.035,3.588,3.588,0,0,0-1.068.364,2.8,2.8,0,0,0-.9.751,2.586,2.586,0,0,0-.483,1.081l-.118.579.505-.282a3.675,3.675,0,0,1,.572-.243c.2-.071.415-.132.629-.191s.43-.113.649-.171.438-.112.66-.169a5.33,5.33,0,0,0-.685-.051c-.23-.007-.458.005-.688.022a5.348,5.348,0,0,0-.691.1l-.124.029a2.685,2.685,0,0,0-.183.493l-.387-.3a3.032,3.032,0,0,1,.57-.2,2.352,2.352,0,0,1,.22-.368,2.9,2.9,0,0,1,.7-.667Z" transform="translate(-2606.336 -368.134)" fill="#ffa2a1"/>
                <path id="패스_8949" data-name="패스 8949" d="M2638.646,405.823a2.649,2.649,0,0,1,.183-.493,2.992,2.992,0,0,0-.57.2Z" transform="translate(-2607.989 -380.253)" fill="#ffa2a1"/>
              </g>
              <path id="패스_8950" data-name="패스 8950" d="M2408.162,1072.384l-.426,9.475q-.405,9.476-.787,18.952l-.738,18.953-.692,18.955-.648,18.956-.6,18.959q-.295,9.48-.553,18.96l-.244,9.481-.122,4.741-.108,4.741.228-4.737.214-4.737.426-9.475q.405-9.476.788-18.952l.738-18.953.693-18.955.649-18.956.6-18.959q.294-9.48.554-18.96l.244-9.481.122-4.741.106-4.741-.229,4.737-.214,4.737Z" transform="translate(-2379.054 -948.986)"/>
              <path id="패스_8951" data-name="패스 8951" d="M2646.828,1137.339l-.121-19.027-.167-19.027q-.091-9.514-.217-19.027l-.141-9.513-.071-4.757-.086-4.757-.036,4.757-.022,4.757-.04,9.514q-.02,9.514-.018,19.028l.032,19.027.08,19.027.123,19.027.167,19.027q.091,9.515.216,19.027l.14,9.513.071,4.757.086,4.757.035-4.757.021-4.757.04-9.515q.021-9.514.018-19.029l-.032-19.027-.078-19.028Z" transform="translate(-2589.112 -947.532)"/>
              <path id="패스_8952" data-name="패스 8952" d="M2525.077,1104.773a3.071,3.071,0,0,1-.441-.081,3.676,3.676,0,0,1-.841-.32,5.309,5.309,0,0,1-.775-.5,2.551,2.551,0,0,0,.681.66,2.768,2.768,0,0,0,.879.391,3.053,3.053,0,0,0,.479.074,2.654,2.654,0,0,0,.484-.028,2.424,2.424,0,0,0,.894-.32,4.619,4.619,0,0,1-.911.137A3.4,3.4,0,0,1,2525.077,1104.773Z" transform="translate(-2482.738 -984.717)"/>
              <rect id="사각형_7397" data-name="사각형 7397" width="0.235" height="13.438" transform="translate(41.761 120.096) rotate(-0.51)"/>
              <path id="패스_8953" data-name="패스 8953" d="M2405.455,510.584h0c-2.927-1.467-5.088-2.534-5.088-2.534h-.434c-1.642.683-7.853,3.3-9.52,4.447a10.612,10.612,0,0,1-2.812-3.456c-1.333.485-3.014,1.109-4.749,1.8-4.3,1.705-8.941,3.794-9.427,5.045-.928,2.389-3.318,34.9-2.521,44.459s-1.058,13.676-1.562,14.738,1.828,3.178,4.083,3.976c1.056.374,10.367.512,20.112.5,11.076-.011,22.712-.219,23.419-.5,1.326-.531-1.062-4.514-1.062-5.441,0-.417.3-5.227.619-10.415.4-6.387.845-13.343.845-13.343s4.244-29.994,3.713-30.921C2420.713,518.309,2411.468,513.6,2405.455,510.584Z" transform="translate(-2349.652 -469.17)" fill="#9df6f6"/>
              <g id="그룹_1810" data-name="그룹 1810" transform="translate(41.458 49.871)">
                <path id="패스_8954" data-name="패스 8954" d="M2591.334,589.031a32.268,32.268,0,0,0-14.106,24.151l9.133,10.054-20.391,11.944,8.361,12.475s33.71-16.457,32.382-21.367-15.378-37.259-15.378-37.259Z" transform="translate(-2561.374 -589.03)" fill="#63e7e7"/>
                <g id="그룹_1809" data-name="그룹 1809" transform="translate(0 46.065)">
                  <path id="패스_8955" data-name="패스 8955" d="M2532.52,934.776l8.908,12.093,4.379-1.924-8.791-12.475Z" transform="translate(-2532.419 -932.382)" fill="#353535"/>
                  <path id="패스_8956" data-name="패스 8956" d="M2531.77,934.189l8.987,12.2,4.5-1.979-8.873-12.59-4.617,2.369Zm9.032,12.034-8.83-11.987,4.373-2.243,8.712,12.36Z" transform="translate(-2531.77 -931.82)"/>
                </g>
              </g>
              <path id="패스_8957" data-name="패스 8957" d="M2485.638,600.88c-.084.767-3.782,18.216-4.479,31.155,4.38,12.143,6.357,11.844,6.357,11.844s5.487-8.361,6.383-11.546c-1.294-8.66-4.578-31.453-4.578-31.453Z" transform="translate(-2446.502 -549.421)" fill="#f7b14c"/>
              <path id="패스_8958" data-name="패스 8958" d="M2480.989,782.058l-5.729-7.359.758-.68a1.111,1.111,0,0,0,.132-1.513l-5.388-6.884a1.113,1.113,0,0,0-1.6-.161l-.66.562-3.665-4.706a1.114,1.114,0,0,0-1.632-.136l-19.09,17.6a1.11,1.11,0,0,0-.126,1.5l6.138,7.938,7.884,10.2c11.076-.011,22.712-.219,23.419-.5,1.326-.531-1.062-4.514-1.062-5.441,0-.417.3-5.227.618-10.415Z" transform="translate(-2414.128 -687.886)" fill="#1f557e"/>
              <g id="그룹_1811" data-name="그룹 1811" transform="translate(26.068 74.788)">
                <path id="패스_8959" data-name="패스 8959" d="M2456.583,774.528a1.113,1.113,0,0,0-1.631-.134l-19.09,17.6a1.114,1.114,0,0,0-.126,1.5l22.3,28.832a1.112,1.112,0,0,0,1.651.121l18.83-18.13a1.114,1.114,0,0,0,.106-1.485Z" transform="translate(-2433.051 -774.099)" fill="#3784bf"/>
                <path id="패스_8960" data-name="패스 8960" d="M2448.425,812.445a1.112,1.112,0,0,1,.134-1.51l.9-.8a1.113,1.113,0,0,0,.133-1.513l-5.39-6.884a1.112,1.112,0,0,0-1.6-.163l-.707.6a1.113,1.113,0,0,1-1.6-.164l-1.7-2.18a1.113,1.113,0,0,0-1.566-.191L2417.67,814.9a1.111,1.111,0,0,0-.191,1.553l22.328,28.874a1.11,1.11,0,0,0,1.553.2l19.717-15.006a1.112,1.112,0,0,0,.2-1.568l-12.856-16.516Z" transform="translate(-2417.247 -795.997)" fill="#92d4f5"/>
              </g>
              <path id="패스_8961" data-name="패스 8961" d="M2474.43,517.59c-.324-.583-.506-.99-.506-.99a6.1,6.1,0,0,0-4.244,2.786s0,0,0,0c.93,3.118,2.437,5.929,3.3,6.328s4-1.948,4.263-4.67a10.612,10.612,0,0,1-2.811-3.456Z" transform="translate(-2436.565 -476.571)" fill="#63e7e7"/>
              <path id="패스_8962" data-name="패스 8962" d="M2535.87,515.37s-.146.059-.4.165c-1.642.683-7.854,3.3-9.52,4.447.265,2.721,3.835,5.121,4.745,5.4,1.927.59,9.365-4.193,10.3-7.31h0C2539.6,515.621,2535.87,515.37,2535.87,515.37Z" transform="translate(-2485.273 -475.506)" fill="#63e7e7"/>
              <path id="패스_8963" data-name="패스 8963" d="M2500.786,541.137c-3.384-.034-4.543,1.692-3.781,4.38,0,0,.8,2.29,1.459,3.815s4.545.7,5.043.531,1.791-5.608,1.791-6.4S2504.171,541.169,2500.786,541.137Z" transform="translate(-2460.024 -497.81)" fill="#f7b14c"/>
              <path id="패스_8964" data-name="패스 8964" d="M2475.06,509.04c-.324-.583-.5-.99-.5-.99a6.1,6.1,0,0,0-4.244,2.786,0,0,0,0,0,0,0c.93,3.117,2.437,5.929,3.3,6.328s4-1.949,4.263-4.67a10.615,10.615,0,0,1-2.812-3.456Z" transform="translate(-2437.11 -469.17)" fill="#9df6f6"/>
              <path id="패스_8965" data-name="패스 8965" d="M2536.51,506.82l-.4.165c-1.642.683-7.853,3.3-9.52,4.447.265,2.721,3.835,5.121,4.745,5.4,1.927.59,9.365-4.193,10.3-7.31h0C2540.236,507.071,2536.51,506.82,2536.51,506.82Z" transform="translate(-2485.827 -468.105)" fill="#9df6f6"/>
              <g id="그룹_1813" data-name="그룹 1813" transform="translate(34.632 100.243)">
                <path id="패스_8966" data-name="패스 8966" d="M2491.2,963.32a13,13,0,0,0-8.288,3.937,1.438,1.438,0,0,0,.431,2.494c-.834.634-2.784,2.2-2.3,3.119a3.15,3.15,0,0,0,1.967,1.611c-.374.863-.27,2.17,1.587,2.729a11.2,11.2,0,0,1,1.348.249,2.986,2.986,0,0,0,1.689,1.74c1.349.574,5.441.91,8.883-3.6s-5.322-12.277-5.322-12.277Z" transform="translate(-2480.972 -963.32)" fill="#ffd4d3"/>
                <g id="그룹_1812" data-name="그룹 1812" transform="translate(2.046 4.878)">
                  <path id="패스_8967" data-name="패스 8967" d="M2519.27,1058.228c-.219.122-.434.253-.641.4a4.723,4.723,0,0,0-.6.472,4.611,4.611,0,0,0,.716-.262c.231-.1.456-.215.674-.336s.434-.253.641-.4a4.848,4.848,0,0,0,.6-.472,4.671,4.671,0,0,0-.717.261C2519.714,1057.991,2519.489,1058.106,2519.27,1058.228Z" transform="translate(-2515.096 -1049.834)" fill="#ffa2a1"/>
                  <path id="패스_8968" data-name="패스 8968" d="M2498.161,1032.054c-.337.173-.672.349-1,.542a10.812,10.812,0,0,0-.96.618,10.911,10.911,0,0,0,1.07-.4c.349-.148.69-.313,1.031-.48s.673-.349,1-.542a10.462,10.462,0,0,0,.961-.619,10.5,10.5,0,0,0-1.07.4C2498.842,1031.721,2498.5,1031.886,2498.161,1032.054Z" transform="translate(-2496.2 -1026.93)" fill="#ffa2a1"/>
                  <path id="패스_8969" data-name="패스 8969" d="M2499.914,1000.264c-.224.13-.446.267-.659.418a5.248,5.248,0,0,0-.615.492,5.183,5.183,0,0,0,.735-.283c.238-.108.468-.23.693-.359s.446-.267.659-.418a.4.4,0,1,0-.121-.21c-.237.108-.467.23-.692.359Z" transform="translate(-2498.312 -999.62)" fill="#ffa2a1"/>
                </g>
              </g>
              <g id="그룹_1814" data-name="그룹 1814" transform="translate(43.565 49.87)">
                <path id="패스_8970" data-name="패스 8970" d="M2604.258,589.021c-13.8,9.423-10.882,24.87-10.882,24.87l7.915,10.3L2580.9,636.135l8.361,12.475s33.344-13.767,32.382-21.367c-1.208-9.551-17.385-38.223-17.385-38.223Z" transform="translate(-2576.404 -589.02)" fill="#9df6f6"/>
                <path id="패스_8971" data-name="패스 8971" d="M2547.45,941.936l8.908,12.093,4.379-1.924-8.793-12.475Z" transform="translate(-2547.45 -892.514)" fill="#63e7e7"/>
              </g>
            </g>
            <path id="패스_8972" data-name="패스 8972" d="M2097.61,566.218c-1.527.161-10.045,16.637-14.541,26.265-5.312,11.375-32.429,22.755-32.429,22.755l4.283,15.8s32.515-13.57,37.6-22.871l8.525-13.27s3.741-29.444-3.44-28.683Z" transform="translate(-2050.64 -519.403)" fill="#a0f2f0"/>
            <path id="패스_8973" data-name="패스 8973" d="M2050.64,921.034l4.283,15.8,4.245-1.853-5.026-15.513Z" transform="translate(-2050.64 -825.13)" fill="#63e7e7"/>
            <path id="패스_8974" data-name="패스 8974" d="M2380.25,736.557a43.038,43.038,0,0,1,.106,5.563c1.474-2.732,6.872-17.823,6.752-23.271-2.565,8.365-4.611,11.565-6.859,17.706Z" transform="translate(-2335.956 -651.516)" fill="#63e7e7"/>
          </g>
          <g id="그룹_1827" data-name="그룹 1827" transform="translate(0 3.014)">
            <g id="그룹_1826" data-name="그룹 1826" transform="translate(0 0)">
              <g id="그룹_1818" data-name="그룹 1818" transform="translate(75.018 100.627)">
                <path id="패스_8975" data-name="패스 8975" d="M1381.791,994.944a1.429,1.429,0,0,0,.43-2.479,12.928,12.928,0,0,0-8.239-3.915s-8.712,7.72-5.29,12.206,7.487,4.15,8.83,3.58a2.974,2.974,0,0,0,1.678-1.731,11.341,11.341,0,0,1,1.34-.247c1.846-.555,1.95-1.856,1.578-2.713a3.129,3.129,0,0,0,1.955-1.6c.486-.915-1.451-2.47-2.282-3.1Z" transform="translate(-1367.895 -988.55)" fill="#ffd4d3"/>
                <g id="그룹_1817" data-name="그룹 1817" transform="translate(8.69 4.851)">
                  <path id="패스_8976" data-name="패스 8976" d="M1433.942,1082.894c-.218-.121-.441-.235-.67-.334a.384.384,0,1,0-.117.211,7.483,7.483,0,0,0,.637.394c.218.121.441.234.67.335a.384.384,0,1,0,.117-.21C1434.374,1083.146,1434.16,1083.016,1433.942,1082.894Z" transform="translate(-1432.56 -1074.553)" fill="#f9c0c0"/>
                  <path id="패스_8977" data-name="패스 8977" d="M1445.787,1056.877c-.337-.167-.677-.33-1.024-.477a10.32,10.32,0,0,0-1.063-.4,10.149,10.149,0,0,0,.956.615c.325.191.658.367.994.539s.677.331,1.024.478a10.32,10.32,0,0,0,1.063.4,10.273,10.273,0,0,0-.955-.615c-.325-.191-.659-.367-.993-.539Z" transform="translate(-1442.203 -1051.787)" fill="#f9c0c0"/>
                  <path id="패스_8978" data-name="패스 8978" d="M1452.73,1025.287c-.224-.129-.453-.249-.688-.356a4.93,4.93,0,0,0-.732-.281,5.053,5.053,0,0,0,.612.49c.212.15.431.286.655.415s.453.249.689.356a4.971,4.971,0,0,0,.731.281,5.128,5.128,0,0,0-.612-.49C1453.173,1025.551,1452.953,1025.416,1452.73,1025.287Z" transform="translate(-1448.79 -1024.65)" fill="#f9c0c0"/>
                </g>
              </g>
              <g id="그룹_1819" data-name="그룹 1819" transform="translate(41.273 54.196)">
                <path id="패스_8979" data-name="패스 8979" d="M1144.9,667.049s3.124-14.141-10.6-23.509c0,0-16.3,27.288-17.5,36.782-.956,7.555,32.192,21.241,32.192,21.241l8.311-12.4-21.179-10.691,8.778-11.421Z" transform="translate(-1116.779 -643.54)" fill="#feebff"/>
                <path id="패스_8980" data-name="패스 8980" d="M1120.448,858.594c-2.545-2.9.446-11.014.446-11.014-6.307,12.923-.989,13.594,2.381,16.5s17.521,9.959,17.521,9.959l1.6-1.926s-19.406-10.627-21.95-13.524Z" transform="translate(-1117.801 -820.161)" fill="#fbe3fc" opacity="0.64"/>
                <path id="패스_8981" data-name="패스 8981" d="M1247.081,650.88s2.879,26.527,2.75,28.9a33.527,33.527,0,0,1-.918,5.045l9.135-10.507-8.219-22.759-2.75-.676Z" transform="translate(-1229.57 -649.894)" fill="#facffd"/>
                <path id="패스_8982" data-name="패스 8982" d="M1322.41,982.542l4.354,1.912,8.856-12.022-4.469-2.292Z" transform="translate(-1294.777 -926.25)" fill="#fbe3fc"/>
              </g>
              <g id="그룹_1823" data-name="그룹 1823" transform="translate(0 93.976)">
                <g id="그룹_1820" data-name="그룹 1820" transform="translate(95.894 130.899)">
                  <path id="패스_8983" data-name="패스 8983" d="M1527.326,1936.815l10.729-6.227,1.869-19.608-16.685,1.059Z" transform="translate(-1523.24 -1910.98)" fill="#ffd4d3"/>
                  <path id="패스_8984" data-name="패스 8984" d="M1563.825,2056.889l-10.815,4.292,23.818,18.142,5.635-.543.023-2.187S1568.185,2063.419,1563.825,2056.889Z" transform="translate(-1549.009 -2037.281)" fill="#ffd4d3"/>
                  <path id="패스_8985" data-name="패스 8985" d="M1563.814,2104.024a1.039,1.039,0,0,1-.157-.069,15.515,15.515,0,0,1-11.189-4.345c-10.562-9.845-16.627-11.1-18.722-11.11-1.84,3-3.809,6.483-1.3,10.32l3.7,11.42,4.154.033.138-10.71c2.712.6,5.349,1.679,6.507,3.6,2.023,3.361,3.677,5.925,5.427,7.2l20.074.164c-.625-1.5-2.575-4.244-8.633-6.512Z" transform="translate(-1530.182 -2064.645)" fill="#3b3b3b"/>
                </g>
                <g id="그룹_1821" data-name="그룹 1821" transform="translate(0 107.063)">
                  <path id="패스_8986" data-name="패스 8986" d="M943.14,1754.944l11.334,4.023,18.816-11.706-11.4-13.661Z" transform="translate(-925.201 -1733.6)" fill="#ffd4d3"/>
                  <path id="패스_8987" data-name="패스 8987" d="M916.5,1911.473l3.345,3.758,2.1-1.3s5.414-18.308,9.467-25.4l-9.528-5.253-5.387,28.2Z" transform="translate(-902.141 -1863.157)" fill="#ffd4d3"/>
                  <path id="패스_8988" data-name="패스 8988" d="M829.22,1880.721c-3.791.474-8.107,1.148-10.513,5.281l-9.057,9.565,2.051,3.031,10.3-6.356c.785,2.329,1.079,4.889-.18,6.888-2.2,3.493-3.818,6.237-4.162,8.277l9.915,14.65c1.121-1.359,2.764-4.425,1.892-10.183a.835.835,0,0,1-.013-.156c-1.994-2.758-2.81-6.264-1.461-10.729,4.108-13.592,2.264-18.743,1.226-20.27Z" transform="translate(-809.65 -1860.95)" fill="#3b3b3b"/>
                </g>
                <g id="그룹_1822" data-name="그룹 1822" transform="translate(21.18)">
                  <path id="패스_8989" data-name="패스 8989" d="M1055.815,963.651l-5.51-25.226-37.262-1.525-5.211,17.256c-3.323,9.493-3.925,42.554-6.641,60.159l-33.932,40.911,22.885,19.866,36.8-49.651,5.035-37.172,3.1,88.038,29.955-1.054c-1.543-43.875-2.771-89.266-9.211-111.6h0Z" transform="translate(-967.26 -936.9)" fill="#3b3b3b"/>
                  <path id="패스_8990" data-name="패스 8990" d="M1286.411,948.742l-2.641,8.747s32.167-4.5,42.091-.875c-.547-3.636-1.579-8.364-1.579-8.364l-37.872.492Z" transform="translate(-1241.236 -946.725)" fill="#141414"/>
                  <path id="패스_8991" data-name="패스 8991" d="M1367.069,1258.635s2.771-20.8,3-23.479a29.743,29.743,0,0,1-13.184-4.805Z" transform="translate(-1304.53 -1190.916)" fill="#141414"/>
                </g>
              </g>
              <g id="그룹_1825" data-name="그룹 1825" transform="translate(59.408)">
                <path id="패스_8992" data-name="패스 8992" d="M1261.862,451.749c0,8.879-10.132,7.99-10.132,7.99,5.479,10.564,13.453,5.483,22.094,5.211a119.459,119.459,0,0,1,15.746.73c-7.521-9.061,0-17.58,0-17.58s-27.707-4.593-27.707,3.65Z" transform="translate(-1251.73 -419.186)"/>
                <path id="패스_8993" data-name="패스 8993" d="M1334.246,308.839c-.367-.9-.742-1.8-1.151-2.681-1.6-3.454-3.864-6.577-7.387-8.244a15.343,15.343,0,0,0-3.468-1.141,10.238,10.238,0,0,0-3.474-.876,13.456,13.456,0,0,0-5.436.767,14.443,14.443,0,0,0-1.378.57,6.238,6.238,0,0,0-1.88.984,16.905,16.905,0,0,0-7.394,8.24c-3.19,7.142,2.485,11.925,2.444,14.617,4.284-.84,10.637-3.038,17.33-1.119,16.252,4.659,11.881-10.7,11.8-11.109a.024.024,0,0,0,0-.007Z" transform="translate(-1294.989 -288.511)"/>
                <path id="패스_8994" data-name="패스 8994" d="M1332.565,342.758c-4.073-2.264-6.245-26.281-8.685-24.326-4.553,3.648-11.86,12.559-3.025,24.326C1324.934,347.054,1333.273,343.151,1332.565,342.758Z" transform="translate(-1307.967 -307.949)"/>
                <path id="패스_8995" data-name="패스 8995" d="M1524.613,334.091c-1.946-.2-.726,6.354,1.9,9.541,1.057,6.718-1.331,15.664-.211,11.87,5.2-17.62-1.691-21.411-1.691-21.411Z" transform="translate(-1487.115 -321.598)"/>
                <path id="패스_8996" data-name="패스 8996" d="M1401.344,539.87a4.971,4.971,0,0,0,9.939.228l.273-10.42-10.008-.249-.2,10.442Z" transform="translate(-1381.237 -490.691)" fill="#ffd4d3"/>
                <path id="패스_8997" data-name="패스 8997" d="M1402.44,533.664c2.78,3.377,8.3,3.424,9.931,3.357l.121-4.873-10.008-.249-.044,1.763Z" transform="translate(-1382.187 -492.829)" fill="#ffa2a1"/>
                <path id="패스_8998" data-name="패스 8998" d="M1366.213,323.463c-11.451,1.164-9.9,12.3-9.9,12.3s-1.895,18.025,14.087,17.939c6.831-.036,10.3-4.689,11.365-9.967,1.432-7.074-.978-15.3-.978-15.3s-3.119-6.137-14.57-4.973Z" transform="translate(-1342.195 -312.276)" fill="#ffd4d3"/>
                <path id="패스_8999" data-name="패스 8999" d="M1545.976,477.42h-.092c-.012.023-.021.046-.035.067Z" transform="translate(-1506.325 -445.67)" fill="#f48183" stroke="#f48183" stroke-width="1"/>
                <path id="패스_9000" data-name="패스 9000" d="M1539.605,461.946c0-.035,0-.07,0-.1l-.1-.052Z" transform="translate(-1500.837 -432.14)" fill="#f48183" stroke="#f48183" stroke-width="1"/>
                <path id="패스_9001" data-name="패스 9001" d="M1526.7,432.107a3.2,3.2,0,0,0-.5-.329c0,.035,0,.07,0,.1l-.1-.156.1.052c.007-.367.015-.734.015-1.1q.006-.6,0-1.205c0-.4-.009-.8-.019-1.205s-.024-.8-.047-1.207c-.045.4-.077.8-.108,1.2s-.058.8-.078,1.2-.043.8-.059,1.2-.031.8-.043,1.2l0,.1.1.051a3.532,3.532,0,0,1,.528.343,2.09,2.09,0,0,1,.43.442,1.034,1.034,0,0,1,.2.532.948.948,0,0,1-.122.481h.091l-.126.066c.014-.021.023-.044.035-.066l-.673,0c-.255,0-.509.008-.765.011s-.51.013-.765.02-.509.02-.765.035c.254.028.508.051.762.073s.508.042.763.058.508.036.763.048l.763.042.079,0,.047-.071a1.2,1.2,0,0,0-.011-1.424,2.392,2.392,0,0,0-.492-.52Z" transform="translate(-1487.438 -402.077)" fill="#f48183" stroke="#f48183" stroke-width="1"/>
                <path id="패스_9002" data-name="패스 9002" d="M1471.37,403.713l5.164.128C1474.188,401.148,1471.37,403.713,1471.37,403.713Z" transform="translate(-1441.854 -380.913)"/>
                <path id="패스_9003" data-name="패스 9003" d="M1540.72,404.624l.993.024C1541.314,402,1540.72,404.624,1540.72,404.624Z" transform="translate(-1501.885 -381.654)"/>
                <path id="패스_9004" data-name="패스 9004" d="M1451.211,447.845a2.212,2.212,0,1,0,2.157,2.266,2.211,2.211,0,0,0-2.157-2.266Z" transform="translate(-1422.442 -420.069)" fill="#ffa2a1"/>
                <path id="패스_9005" data-name="패스 9005" d="M1487.5,424.459c-.524-.013-.967.646-.987,1.471s.388,1.505.913,1.518.966-.646.986-1.471S1488.026,424.471,1487.5,424.459Z" transform="translate(-1454.963 -399.826)"/>
                <path id="패스_9006" data-name="패스 9006" d="M1545.894,424.2c-.135,0-.262.664-.282,1.489s.073,1.5.208,1.5.262-.664.282-1.489S1546.03,424.2,1545.894,424.2Z" transform="translate(-1506.117 -399.602)"/>
                <path id="패스_9007" data-name="패스 9007" d="M1344.884,425.042a4.582,4.582,0,0,0-6.289,1.013,3.27,3.27,0,0,0-.364.648,4.5,4.5,0,0,0-.332,2.005,3.992,3.992,0,0,0,2.446,3.566c1.611.625,4.257-.126,5.786-.773,1.38-2.177-.231-5.152-.232-5.155a2.877,2.877,0,0,0-1.013-1.3Z" transform="translate(-1326.313 -399.605)" fill="#ffd4d3"/>
                <path id="패스_9008" data-name="패스 9008" d="M1382.488,456.8a2.875,2.875,0,0,0-.5-.192,2.7,2.7,0,0,1,.147.449Z" transform="translate(-1364.485 -427.656)" fill="#ffa2a1"/>
                <path id="패스_9009" data-name="패스 9009" d="M1364.324,443.512a2.71,2.71,0,0,0-.848-.751,3.752,3.752,0,0,0-2.1-.46,7.875,7.875,0,0,1,.985.344,4.941,4.941,0,0,1,.878.485,2.832,2.832,0,0,1,.678.672,2.27,2.27,0,0,1,.23.411,2.869,2.869,0,0,1,.5.192l-.352.257a2.69,2.69,0,0,0-.147-.449c-.055-.016-.111-.031-.167-.046a5.28,5.28,0,0,0-.669-.118c-.223-.024-.446-.042-.669-.044a5.322,5.322,0,0,0-.669.024c.215.059.429.118.641.172s.423.111.63.176.414.124.611.2a3.462,3.462,0,0,1,.557.25l.445.262-.094-.517A2.5,2.5,0,0,0,1364.324,443.512Z" transform="translate(-1346.645 -415.258)" fill="#ffa2a1"/>
                <path id="패스_9010" data-name="패스 9010" d="M1345.979,294.692c-6.468,3.837-7.7,18,1.13,15.8-.129,3.767.357,8.517,6.325,9.471-4.022-5.453-4.022-10.57-3.377-13.382,17.236-.572,16.276-8.934,16.276-8.934-3.531-6.41-14.823-7.355-20.356-2.952Z" transform="translate(-1328.837 -285.151)"/>
                <path id="패스_9011" data-name="패스 9011" d="M1378.035,324.509c.222-.163.255-.855.171-1.075-.259-.668-.912-.628-1.521-.411a5.484,5.484,0,0,0-.922.446,10.8,10.8,0,0,0-2.789,2.444,21.1,21.1,0,0,0-1.719,2.407c-3.1,4.983,5.1-2.083,5.1-2.083s-1.068,2.283.132,1.838,5.18-4.2,5.568-5.081-3.6,1.21-4.018,1.516Z" transform="translate(-1354.588 -311.809)" fill="#393a3a"/>
                <path id="패스_9012" data-name="패스 9012" d="M1437.971,337.133s1.3-2.225-.747-.969c0,0-2.536,1.771-3.013,2.88s3.451-1.34,3.451-1.34-.825.845-.755,1.277,3.862-2.719,3.666-3.378S1437.971,337.133,1437.971,337.133Z" transform="translate(-1409.654 -322.802)" fill="#393a3a"/>
                <path id="패스_9013" data-name="패스 9013" d="M1500.137,489.947c1.4.64,2.646-1.368,2.646-1.368l-3.794-.649a1.9,1.9,0,0,0,1.148,2.018Z" transform="translate(-1465.747 -454.767)" fill="#fff"/>
                <g id="그룹_1824" data-name="그룹 1824" transform="translate(0.296)">
                  <ellipse id="타원_46" data-name="타원 46" cx="6.324" cy="7.723" rx="6.324" ry="7.723" transform="matrix(0.858, -0.514, 0.514, 0.858, 0, 6.499)"/>
                  <path id="패스_9014" data-name="패스 9014" d="M1293.647,272.534a11.447,11.447,0,0,1-1.88-3.863l-.457.1a11.715,11.715,0,0,0,1.947,4.023,13,13,0,0,0,8.647,5.125l.077-.461a12.554,12.554,0,0,1-8.336-4.924Z" transform="translate(-1286.287 -264.972)" fill="#393a3a"/>
                  <path id="패스_9015" data-name="패스 9015" d="M1276.355,293.86l-.406.231a15.614,15.614,0,0,0,2.982,3.544,12.828,12.828,0,0,0,8.533,3.432c.081,0,.161,0,.244,0l-.01-.468C1280.358,300.742,1276.395,293.928,1276.355,293.86Z" transform="translate(-1272.991 -286.777)" fill="#393a3a"/>
                  <path id="패스_9016" data-name="패스 9016" d="M1273.741,277.91a9.428,9.428,0,0,1-5.361-3.608,7.109,7.109,0,0,1-.947-7.183,5.393,5.393,0,0,1,4.265-3.431l-.023-.208a5.6,5.6,0,0,0-4.436,3.556,7.263,7.263,0,0,0-.543,3.627,7.546,7.546,0,0,0,1.516,3.766,10.469,10.469,0,0,0,2.3,2.243,9.209,9.209,0,0,0,3.189,1.446,7.8,7.8,0,0,0,2.834.183l-.035-.207a7.761,7.761,0,0,1-2.761-.183Z" transform="translate(-1264.946 -260.48)" fill="#323232"/>
                </g>
              </g>
              <path id="패스_9017" data-name="패스 9017" d="M1296.754,621.467c.077-.712.125-1.594.146-2.607a221.827,221.827,0,0,0-2.27-29.6,7.409,7.409,0,0,0-.385-1.562c-.481-.95-5.092-2.537-9.371-3.833-1.724-.521-3.4-1-4.719-1.365a8.744,8.744,0,0,0-2.716-.568c-2.729-.16-6.208-.3-9.544-.183h-.43s-2.147.81-5.058,1.923v0c-5.98,2.291-15.171,5.867-15.524,6.343-.53.7,3.689,23.489,3.689,23.489s.444,5.284.843,10.136c.321,3.94.614,7.6.614,7.91,0,.7-2.376,3.73-1.055,4.135.7.214,5.623-.888,23.945-1.306,9.682-.222,18.28,1.588,19.328,1.306,2.242-.607,4.561-2.216,4.061-3.022s-2.344-3.936-1.552-11.194Z" transform="translate(-1188.088 -535.837)" fill="#fff0ff"/>
            </g>
            <path id="패스_9018" data-name="패스 9018" d="M1556.929,719.275l9.545,17.49c-3.573-12.413-7.982-28.818-8.926-35.685a109.521,109.521,0,0,0-.621,18.2Z" transform="translate(-1456.391 -639.147)" fill="#facffd"/>
            <path id="패스_9019" data-name="패스 9019" d="M1581.248,647.858c-4.654-9.485-12.94-25.949-14.457-26.11-7.14-.757-3.42,28.513-3.42,28.513l8.474,13.191a17.783,17.783,0,0,0,10.105,7.495l27.594,7.828,4.259-15.71-22.34-6.589A16.609,16.609,0,0,1,1581.248,647.858Z" transform="translate(-1461.246 -570.474)" fill="#fff0ff"/>
          </g>
        </g>
        <path id="패스_9020" data-name="패스 9020" d="M1915.62,1427.693c-3.875.536-9.166.632-12.366-1.963l-.085.1c2.171,1.762,5.285,2.3,8.278,2.3a30.7,30.7,0,0,0,4.19-.307c3.949-.547,7.36-1.689,7.582-2.005l-.11-.078a26.408,26.408,0,0,1-7.49,1.95Z" transform="translate(-1646.825 -1233.85)"/>
      </g>
    </g>
  </g>
</svg>
