<svg xmlns="http://www.w3.org/2000/svg" width="11.207" height="13" viewBox="0 0 11.207 13">
  <g id="그룹_2588" data-name="그룹 2588" transform="translate(-1120.5 -945)">
    <path id="패스_1795" data-name="패스 1795" d="M1054,3034.346a.5.5,0,0,1-.354-.854l5.646-5.646-5.646-5.646a.5.5,0,0,1,.707-.707l6.354,6.354-6.354,6.354A.5.5,0,0,1,1054,3034.346Z" transform="translate(67 -2076.346)" fill="#999"/>
    <path id="패스_9128" data-name="패스 9128" d="M1054,3034.346a.5.5,0,0,1-.354-.854l5.646-5.646-5.646-5.646a.5.5,0,0,1,.707-.707l6.354,6.354-6.354,6.354A.5.5,0,0,1,1054,3034.346Z" transform="translate(71 -2076.346)" fill="#999"/>
  </g>
</svg>
