<svg xmlns="http://www.w3.org/2000/svg" width="11.207" height="13" viewBox="0 0 11.207 13">
  <g id="그룹_2589" data-name="그룹 2589" transform="translate(-960.293 -945)">
    <path id="패스_1800" data-name="패스 1800" d="M1060,3034.346a.5.5,0,0,1-.354-.146l-6.354-6.354,6.354-6.354a.5.5,0,0,1,.707.707l-5.646,5.646,5.646,5.646a.5.5,0,0,1-.354.854Z" transform="translate(-93 -2076.346)" fill="#999"/>
    <path id="패스_9129" data-name="패스 9129" d="M1060,3034.346a.5.5,0,0,1-.354-.146l-6.354-6.354,6.354-6.354a.5.5,0,0,1,.707.707l-5.646,5.646,5.646,5.646a.5.5,0,0,1-.354.854Z" transform="translate(-89 -2076.346)" fill="#999"/>
  </g>
</svg>
