<svg xmlns="http://www.w3.org/2000/svg" width="24" height="24" viewBox="0 0 24 24">
  <g id="그룹_2424" data-name="그룹 2424" transform="translate(0 0.214)">
    <rect id="사각형_7547" data-name="사각형 7547" width="24" height="24" transform="translate(0 -0.214)" fill="#fff"/>
    <path id="Icon_ionic-ios-phone-portrait" data-name="Icon ionic-ios-phone-portrait" d="M15.26,2.25H11.012a.881.881,0,0,0-.887.881V13.337a.907.907,0,0,0,.887.913h4.246a.89.89,0,0,0,.865-.913V3.131A.859.859,0,0,0,15.26,2.25Zm-2.537.616h.8a.107.107,0,1,1,0,.214h-.8a.107.107,0,1,1,0-.214Zm.415,10.982a.466.466,0,1,1,.466-.466A.466.466,0,0,1,13.138,13.848Zm2.5-1.312H10.607a.054.054,0,0,1-.054-.054V3.67a.054.054,0,0,1,.054-.054h5.036a.054.054,0,0,1,.054.054v8.813A.054.054,0,0,1,15.643,12.536Z" transform="translate(-1.125 3.75)" fill="#333"/>
  </g>
</svg>
