<?xml version="1.0" encoding="utf-8"?>
<!-- Generator: Adobe Illustrator 24.1.1, SVG Export Plug-In . SVG Version: 6.00 Build 0)  -->
<svg version="1.1" id="레이어_1" xmlns="http://www.w3.org/2000/svg" xmlns:xlink="http://www.w3.org/1999/xlink" x="0px"
	 y="0px" viewBox="0 0 24 24" style="enable-background:new 0 0 24 24;" xml:space="preserve">
<style type="text/css">
	.st0{fill:#333333;}
</style>
<g id="그룹_2424" transform="translate(0 0.214)">
	<path id="Icon_ionic-ios-phone-portrait" class="st0" d="M14.1,6H9.9C9.4,6,9,6.4,9,6.9c0,0,0,0,0,0v10.2C9,17.6,9.4,18,9.9,18h4.2
		c0.5,0,0.9-0.4,0.9-0.9V6.9C15,6.4,14.6,6,14.1,6C14.2,6,14.1,6,14.1,6z M11.6,6.6h0.8c0.1,0,0.1,0,0.1,0.1c0,0.1,0,0.1-0.1,0.1
		c0,0,0,0,0,0h-0.8c-0.1,0-0.1,0-0.1-0.1C11.5,6.7,11.5,6.6,11.6,6.6C11.6,6.6,11.6,6.6,11.6,6.6z M12,17.6c-0.3,0-0.5-0.2-0.5-0.5
		s0.2-0.5,0.5-0.5c0.3,0,0.5,0.2,0.5,0.5v0C12.5,17.4,12.3,17.6,12,17.6z M14.5,16.3h-5c0,0-0.1,0-0.1-0.1V7.4c0,0,0-0.1,0.1-0.1h5
		c0,0,0.1,0,0.1,0.1L14.5,16.3C14.6,16.3,14.5,16.3,14.5,16.3L14.5,16.3z"/>
</g>
</svg>
