<svg id="b" xmlns="http://www.w3.org/2000/svg" width="60" height="60" viewBox="0 0 60 60">
  <g id="c">
    <g id="그룹_1705" data-name="그룹 1705">
      <g id="그룹_1704" data-name="그룹 1704">
        <path id="패스_8818" data-name="패스 8818" d="M30.466,60.432A29.974,29.974,0,0,1,18.8,2.855,29.973,29.973,0,0,1,42.13,58.077a29.776,29.776,0,0,1-11.664,2.355Z" transform="translate(-0.466 -0.466)" fill="#fff"/>
        <path id="패스_8819" data-name="패스 8819" d="M30,.053A29.808,29.808,0,0,1,46.744,5.167a30.032,30.032,0,0,1,10.85,13.176,29.909,29.909,0,0,1-2.761,28.4,30.032,30.032,0,0,1-13.176,10.85,29.909,29.909,0,0,1-28.4-2.761A30.032,30.032,0,0,1,2.407,41.656a29.907,29.907,0,0,1,2.76-28.4A30.032,30.032,0,0,1,18.343,2.407,29.757,29.757,0,0,1,30,.053M30,0A30,30,0,1,0,60,30,30,30,0,0,0,30,0Z" fill="#ddd"/>
      </g>
      <path id="패스_8820" data-name="패스 8820" d="M7.163,46.509A27.133,27.133,0,0,1,0,28.211C0,12.634,13.43,0,30,0S60,12.629,60,28.211A27.15,27.15,0,0,1,52.842,46.5c-.713-6.841-15.377-10.6-22.831-10.6S7.839,39.663,7.163,46.509h0ZM29.995,29.095c6.314,0,11.434-4.815,11.434-10.752S36.308,7.59,29.995,7.59,18.561,12.405,18.561,18.342s5.121,10.752,11.434,10.752Z" fill="#ddd"/>
    </g>
  </g>
</svg>
