<svg xmlns="http://www.w3.org/2000/svg" width="15" height="14.111" viewBox="0 0 15 14.111">
  <g id="그룹_1303" data-name="그룹 1303" transform="translate(0.5 0.611)">
    <g id="그룹_1302" data-name="그룹 1302">
      <g id="그룹_1301" data-name="그룹 1301" transform="translate(1.522)">
        <path id="패스_1694" data-name="패스 1694" d="M7324.7,6274.559a.5.5,0,0,1-.282-.087l-5.171-3.544-4.929,3.538a.5.5,0,1,1-.583-.812l5.5-3.947.29.2,5.461,3.742a.5.5,0,0,1-.283.913Z" transform="translate(-7314.025 -6270.316)" fill="#999"/>
        <path id="패스_1695" data-name="패스 1695" d="M7319.3,6280.077a.5.5,0,0,1-.5-.5v-9.26a.5.5,0,0,1,1,0v9.26A.5.5,0,0,1,7319.3,6280.077Z" transform="translate(-7314.236 -6269.467)" fill="#999"/>
      </g>
      <path id="패스_1696" data-name="패스 1696" d="M7327.478,6284.387h-15v-3.961a.5.5,0,0,1,1,0v2.961h13v-2.961a.5.5,0,0,1,1,0Z" transform="translate(-7312.978 -6270.887)" fill="#999"/>
    </g>
  </g>
</svg>
