<svg xmlns="http://www.w3.org/2000/svg" width="29.25" height="29.25" viewBox="0 0 29.25 29.25">
  <g id="Icon_feather-minus-circle" data-name="Icon feather-minus-circle" transform="translate(-3 -3)">
    <path id="패스_9117" data-name="패스 9117" d="M17.625,29.75A12.125,12.125,0,1,0,9.051,26.2a12.046,12.046,0,0,0,8.574,3.551m0,2.5A14.625,14.625,0,1,1,32.25,17.625,14.625,14.625,0,0,1,17.625,32.25ZM32.25,17.625h0Z" transform="translate(0)" fill="#dd5067"/>
    <path id="패스_9118" data-name="패스 9118" d="M24,19.25H12a1.25,1.25,0,0,1,0-2.5H24a1.25,1.25,0,0,1,0,2.5Z" transform="translate(-0.375 -0.375)" fill="#dd5067"/>
  </g>
</svg>
