<svg xmlns="http://www.w3.org/2000/svg" width="18" height="18" viewBox="0 0 18 18">
  <g id="그룹_2499" data-name="그룹 2499" transform="translate(15512 15947)">
    <rect id="사각형_7609" data-name="사각형 7609" width="18" height="18" transform="translate(-15512 -15947)" fill="rgba(255,255,255,0)"/>
    <g id="Icon_feather-home" data-name="Icon feather-home" transform="translate(-15510.508 -15946.25)">
      <path id="패스_9123" data-name="패스 9123" d="M10.5,1.5a.749.749,0,0,1,.46.158l6.75,5.25A.75.75,0,0,1,18,7.5v8.25A2.252,2.252,0,0,1,15.749,18H5.25A2.252,2.252,0,0,1,3,15.749V7.5a.75.75,0,0,1,.29-.592l6.75-5.25A.749.749,0,0,1,10.5,1.5Zm6,6.367L10.5,3.2l-6,4.666v7.883a.751.751,0,0,0,.75.75h10.5a.751.751,0,0,0,.75-.75Z" transform="translate(-3 -1.5)"/>
      <path id="패스_9124" data-name="패스 9124" d="M16.939,24.967a.706.706,0,0,1-.706-.706V17.911H13.411v6.351a.706.706,0,0,1-1.411,0V17.206a.706.706,0,0,1,.706-.706h4.234a.706.706,0,0,1,.706.706v7.056A.706.706,0,0,1,16.939,24.967Z" transform="translate(-7.323 -8.468)"/>
    </g>
  </g>
</svg>
