<svg xmlns="http://www.w3.org/2000/svg" width="18" height="18" viewBox="0 0 18 18">
  <g id="그룹_2498" data-name="그룹 2498" transform="translate(15570 15947)">
    <rect id="사각형_7611" data-name="사각형 7611" width="18" height="18" transform="translate(-15570 -15947)" fill="rgba(255,255,255,0)"/>
    <g id="Icon_feather-mail" data-name="Icon feather-mail" transform="translate(-15569 -15943.999)">
      <path id="합치기_1" data-name="합치기 1" d="M2.182,12A2.1,2.1,0,0,1,0,10V2c0-.006,0-.011,0-.016A2.1,2.1,0,0,1,2.182,0H13.818A2.1,2.1,0,0,1,16,1.962a.551.551,0,0,1,0,.063V10a2.1,2.1,0,0,1-2.182,2Zm-.727-2a.7.7,0,0,0,.727.666H13.818A.7.7,0,0,0,14.545,10V3.28L8.418,7.212A.779.779,0,0,1,8,7.333a.769.769,0,0,1-.416-.121L1.455,3.279ZM8,5.851,14.468,1.7a.735.735,0,0,0-.651-.368H2.182a.736.736,0,0,0-.65.367Z" transform="translate(0 0)"/>
    </g>
  </g>
</svg>
