<svg xmlns="http://www.w3.org/2000/svg" width="18" height="18" viewBox="0 0 18 18">
  <g id="그룹_2497" data-name="그룹 2497" transform="translate(15612 15947)">
    <rect id="사각형_7613" data-name="사각형 7613" width="18" height="18" transform="translate(-15612 -15947)" fill="rgba(255,255,255,0)"/>
    <g id="Icon_feather-calendar" data-name="Icon feather-calendar" transform="translate(-15610 -15946)">
      <path id="합치기_2" data-name="합치기 2" d="M2.1,16A2.145,2.145,0,0,1,0,13.819V3.636A2.143,2.143,0,0,1,2.1,1.456H3.5V.727a.7.7,0,1,1,1.4,0v.729H9.1V.727a.7.7,0,1,1,1.4,0v.729h1.4A2.143,2.143,0,0,1,14,3.636V13.819A2.145,2.145,0,0,1,11.9,16Zm-.7-2.181a.715.715,0,0,0,.7.727h9.8a.714.714,0,0,0,.7-.727V7.271H1.4Zm11.2-8V3.636a.714.714,0,0,0-.7-.727H10.5v.727a.7.7,0,1,1-1.4,0V2.91H4.9v.727a.7.7,0,1,1-1.4,0V2.91H2.1a.715.715,0,0,0-.7.727V5.817Z" transform="translate(0 0)"/>
    </g>
  </g>
</svg>
