<svg xmlns="http://www.w3.org/2000/svg" width="50" height="50" viewBox="0 0 50 50">
  <g id="그룹_1853" data-name="그룹 1853" transform="translate(-69 -302)">
    <rect id="사각형_7291" data-name="사각형 7291" width="50" height="50" transform="translate(69 302)" fill="none"/>
    <rect id="사각형_7292" data-name="사각형 7292" width="37" height="37" transform="translate(75 308)" fill="none"/>
    <path id="패스_8783" data-name="패스 8783" d="M422.2,854.984H416V848h6.974v6.986Zm-4.645-1.552h3.869v-3.881h-3.869Z" transform="translate(-336.91 -525.453)" fill="#fff"/>
    <path id="패스_8784" data-name="패스 8784" d="M225.892,385.551a.333.333,0,0,0-.238.1.363.363,0,0,0-.1.257v31.1a.377.377,0,0,0,.107.264h0a.332.332,0,0,0,.235.1h35.021a.332.332,0,0,0,.237-.1.375.375,0,0,0,.1-.264v-31.1a.363.363,0,0,0-.1-.256.334.334,0,0,0-.239-.1h-8.179V384h8.179a1.884,1.884,0,0,1,1.342.565,1.9,1.9,0,0,1,.552,1.342v31.1a1.929,1.929,0,0,1-.553,1.349,1.872,1.872,0,0,1-1.341.569H225.892a1.872,1.872,0,0,1-1.341-.569h0a1.928,1.928,0,0,1-.55-1.349v-31.1a1.9,1.9,0,0,1,.552-1.342,1.883,1.883,0,0,1,1.342-.565h8.179v1.552h-8.179Zm23.738,0H237.176V384H249.63v1.552Z" transform="translate(-149.565 -72.707)" fill="#fff"/>
    <path id="패스_8785" data-name="패스 8785" d="M886.193,854.984H880V848h6.974v6.986Zm-4.646-1.552h3.869v-3.881h-3.869Z" transform="translate(-789.65 -525.453)" fill="#fff"/>
    <path id="패스_8786" data-name="패스 8786" d="M1350.193,854.984H1344V848h6.974v6.986Zm-4.645-1.552h3.869v-3.881h-3.869Z" transform="translate(-1242.396 -525.453)" fill="#fff"/>
    <path id="패스_8787" data-name="패스 8787" d="M422.2,1318.984H416V1312h6.974v6.986Zm-4.645-1.552h3.869v-3.881h-3.869Z" transform="translate(-336.91 -978.198)" fill="#fff"/>
    <path id="패스_8788" data-name="패스 8788" d="M886.193,1318.984H880V1312h6.974v6.986Zm-4.646-1.552h3.869v-3.881h-3.869Z" transform="translate(-789.65 -978.198)" fill="#fff"/>
    <path id="패스_8789" data-name="패스 8789" d="M1350.193,1318.984H1344V1312h6.974v6.986Zm-4.645-1.552h3.869v-3.881h-3.869Z" transform="translate(-1242.396 -978.198)" fill="#fff"/>
    <path id="패스_8790" data-name="패스 8790" d="M1314.271,256.774a.776.776,0,1,0-1.552,0v6.209a.776.776,0,1,0,1.552,0Z" transform="translate(-1211.878 52.188)" fill="#fff"/>
    <path id="패스_8791" data-name="패스 8791" d="M672.829,256.774a.776.776,0,1,0-1.552,0v6.209a.776.776,0,1,0,1.552,0Z" transform="translate(-585.994 52.188)" fill="#fff"/>
  </g>
</svg>
