<svg xmlns="http://www.w3.org/2000/svg" width="20" height="20" viewBox="0 0 20 20">
  <g id="그룹_2702" data-name="그룹 2702" transform="translate(-89.504 -86)">
    <path id="패스_9164" data-name="패스 9164" d="M0,0H20V20H0Z" transform="translate(89.504 86)" fill="rgba(255,255,255,0)"/>
    <path id="Icon_ionic-ios-settings" data-name="Icon ionic-ios-settings" d="M15.509,10.5A1.544,1.544,0,0,1,16.5,9.059a6.121,6.121,0,0,0-.741-1.784,1.565,1.565,0,0,1-.628.134,1.541,1.541,0,0,1-1.409-2.169A6.1,6.1,0,0,0,11.941,4.5a1.543,1.543,0,0,1-2.881,0,6.121,6.121,0,0,0-1.784.741A1.541,1.541,0,0,1,5.866,7.409a1.514,1.514,0,0,1-.628-.134A6.256,6.256,0,0,0,4.5,9.062a1.544,1.544,0,0,1,0,2.881,6.121,6.121,0,0,0,.741,1.784,1.541,1.541,0,0,1,2.034,2.034,6.156,6.156,0,0,0,1.784.741,1.54,1.54,0,0,1,2.875,0,6.121,6.121,0,0,0,1.784-.741,1.543,1.543,0,0,1,2.034-2.034,6.156,6.156,0,0,0,.741-1.784A1.552,1.552,0,0,1,15.509,10.5ZM10.528,13a2.5,2.5,0,1,1,2.5-2.5A2.5,2.5,0,0,1,10.528,13Z" transform="translate(89.004 85.5)" fill="#fff"/>
  </g>
</svg>
