<svg id="Icon_ionic-ios-document" data-name="Icon ionic-ios-document" xmlns="http://www.w3.org/2000/svg" width="11" height="14" viewBox="0 0 11 14">
  <path id="패스_9053" data-name="패스 9053" d="M21.278,7.464h3.239a.176.176,0,0,0,.178-.178h0a1.053,1.053,0,0,0-.381-.815L21.6,4.208a1.143,1.143,0,0,0-.733-.263h0a.263.263,0,0,0-.263.263v2.58A.676.676,0,0,0,21.278,7.464Z" transform="translate(-13.694 -3.941)" fill="#333"/>
  <path id="패스_9054" data-name="패스 9054" d="M13.211,6.738v-2.8H8.47a1.143,1.143,0,0,0-1.158,1.12v11.76a1.143,1.143,0,0,0,1.158,1.12h8.684a1.143,1.143,0,0,0,1.158-1.12V8.313H14.839A1.6,1.6,0,0,1,13.211,6.738Z" transform="translate(-7.313 -3.938)" fill="#333"/>
</svg>
