<svg xmlns="http://www.w3.org/2000/svg" width="50" height="50" viewBox="0 0 50 50">
  <g id="그룹_1854" data-name="그룹 1854" transform="translate(-69 -454)">
    <path id="패스_8776" data-name="패스 8776" d="M224.776,224H262.9v38.9H224V224Zm36.569,1.556H225.554v35.791h35.791Z" transform="translate(-149.43 235.597)" fill="#fff"/>
    <rect id="사각형_7286" data-name="사각형 7286" width="50" height="50" transform="translate(69 454)" fill="none"/>
    <rect id="사각형_7287" data-name="사각형 7287" width="38" height="38" transform="translate(75 460)" fill="none"/>
    <path id="_206793224" d="M897.693,406.577a3.819,3.819,0,1,1,2.692-1.12A3.8,3.8,0,0,1,897.693,406.577Zm-1.563-2.245a2.213,2.213,0,1,0-.649-1.564A2.2,2.2,0,0,0,896.13,404.332Z" transform="translate(-803.125 64.737)" fill="#fff"/>
    <path id="_206793176" d="M816.918,677.042l-.09.051h0a3.973,3.973,0,0,0-1.6,1.617,4.289,4.289,0,0,0-.444,1.644h8.424a4.3,4.3,0,0,0-.445-1.647,3.965,3.965,0,0,0-1.6-1.615h0l-.092-.053.792-1.378.094.054h0a5.521,5.521,0,0,1,2.215,2.263,6.289,6.289,0,0,1,.631,3.209l-.035.764H813.222l-.036-.761a6.274,6.274,0,0,1,.628-3.209,5.532,5.532,0,0,1,2.216-2.266l.006,0,.1-.054Z" transform="translate(-724.43 -205.062)" fill="#fff"/>
    <path id="패스_8777" data-name="패스 8777" d="M448,1056h27.73v1.6H448Z" transform="translate(-367.846 -576.188)" fill="#fff"/>
    <path id="패스_8778" data-name="패스 8778" d="M448,1312h27.73v1.6H448Z" transform="translate(-367.846 -825.933)" fill="#fff"/>
    <path id="패스_8779" data-name="패스 8779" d="M448,1568h27.73v1.6H448Z" transform="translate(-367.846 -1075.678)" fill="#fff"/>
  </g>
</svg>
