<svg xmlns="http://www.w3.org/2000/svg" width="24" height="24" viewBox="0 0 24 24">
  <g id="그룹_2451" data-name="그룹 2451" transform="translate(-1591 -125)">
    <path id="Icon_awesome-trash-alt" data-name="Icon awesome-trash-alt" d="M.857,11.781A1.254,1.254,0,0,0,2.143,13H9.857a1.254,1.254,0,0,0,1.286-1.219V3.25H.857Zm7.286-6.5a.429.429,0,0,1,.857,0v5.687a.429.429,0,0,1-.857,0Zm-2.571,0a.429.429,0,0,1,.857,0v5.687a.429.429,0,0,1-.857,0ZM3,5.281a.429.429,0,0,1,.857,0v5.687a.429.429,0,0,1-.857,0ZM11.571.812H8.357L8.105.338A.647.647,0,0,0,7.529,0H4.468a.64.64,0,0,0-.573.338L3.643.812H.429A.418.418,0,0,0,0,1.219v.812a.418.418,0,0,0,.429.406H11.571A.418.418,0,0,0,12,2.031V1.219A.418.418,0,0,0,11.571.812Z" transform="translate(1597 130)" fill="#999"/>
    <rect id="사각형_7549" data-name="사각형 7549" width="24" height="24" transform="translate(1591 125)" fill="none"/>
  </g>
</svg>
