<svg xmlns="http://www.w3.org/2000/svg" width="50" height="50" viewBox="0 0 50 50">
  <g id="그룹_1888" data-name="그룹 1888" transform="translate(-1557.595 -388.375)">
    <g id="Icon_ionic-ios-checkmark-circle-outline" data-name="Icon ionic-ios-checkmark-circle-outline" transform="translate(1557.595 388.375)">
      <path id="패스_9023" data-name="패스 9023" d="M36.192,14.525,34.075,12.35a.455.455,0,0,0-.337-.144h0a.437.437,0,0,0-.337.144L18.732,27.115l-5.339-5.334a.465.465,0,0,0-.673,0l-2.14,2.138a.478.478,0,0,0,0,.685l6.734,6.727a2.13,2.13,0,0,0,1.407.685,2.232,2.232,0,0,0,1.395-.661h.012L36.2,15.21A.513.513,0,0,0,36.192,14.525Z" transform="translate(1.627 2.895)" fill="#5bd2c0"/>
      <path id="패스_9024" data-name="패스 9024" d="M28.375,6.74a21.638,21.638,0,0,1,15.3,36.935,21.638,21.638,0,0,1-30.6-30.6,21.491,21.491,0,0,1,15.3-6.334m0-3.365a25,25,0,1,0,25,25,25,25,0,0,0-25-25Z" transform="translate(-3.375 -3.375)" fill="#5bd2c0"/>
    </g>
  </g>
</svg>
