<svg id="pen" xmlns="http://www.w3.org/2000/svg" width="14" height="14.005" viewBox="0 0 14 14.005">
  <path id="패스_1842" data-name="패스 1842" d="M.473,356.37a.4.4,0,0,0,.388.515.378.378,0,0,0,.111-.016l3.769-1.076L1.548,352.6Zm0,0" transform="translate(-0.445 -342.894)" fill="#333"/>
  <path id="패스_1843" data-name="패스 1843" d="M.416,356.021a.415.415,0,0,1-.4-.531L1.1,351.7l3.224,3.224L.529,356A.409.409,0,0,1,.416,356.021Zm.7-4.273L.042,355.5a.389.389,0,0,0,.375.5.374.374,0,0,0,.108-.016l3.747-1.07Zm0,0" transform="translate(0 -342.016)" fill="#333"/>
  <path id="패스_1844" data-name="패스 1844" d="M343.615,2.568,341.9.856a1.217,1.217,0,0,0-1.717,0l-.857.857,3.426,3.427.857-.857a1.217,1.217,0,0,0,0-1.712Zm0,0" transform="translate(-329.979 -0.487)" fill="#333"/>
  <path id="패스_1845" data-name="패스 1845" d="M342.176,4.669,338.73,1.224,339.6.359a1.224,1.224,0,0,1,1.731,0l1.712,1.712a1.224,1.224,0,0,1,0,1.731Zm-3.408-3.445,3.408,3.408.846-.847a1.2,1.2,0,0,0,0-1.693L341.31.377a1.2,1.2,0,0,0-1.7,0Zm0,0" transform="translate(-329.397)" fill="#333"/>
  <path id="패스_1846" data-name="패스 1846" d="M57.8,73.746l7.156-7.156,3.494,3.494L61.3,77.24Zm0,0" transform="translate(-56.246 -64.795)" fill="#333"/>
  <path id="패스_1847" data-name="패스 1847" d="M60.546,76.587l-3.514-3.514L64.208,65.9,67.72,69.41Zm-3.473-3.514,3.473,3.473,7.136-7.136-3.473-3.473Zm0,0" transform="translate(-55.494 -64.122)" fill="#333"/>
</svg>
