<svg xmlns="http://www.w3.org/2000/svg" width="50" height="50" viewBox="0 0 50 50">
  <g id="그룹_1855" data-name="그룹 1855" transform="translate(-69 -606)">
    <path id="패스_8822" data-name="패스 8822" d="M147.809,97.663l-8.2-4.737V80.974a.312.312,0,0,0-.312-.312H138.4a.312.312,0,0,0-.312.312V93.621a.311.311,0,0,0,.156.27l8.807,5.085a.312.312,0,0,0,.426-.114l.446-.773A.312.312,0,0,0,147.809,97.663Z" transform="translate(-44.846 537.636)" fill="#fff"/>
    <path id="패스_8823" data-name="패스 8823" d="M68.075,48.732A19.342,19.342,0,1,0,87.417,68.075,19.365,19.365,0,0,0,68.075,48.732Zm.758,37.154V82.942a.312.312,0,0,0-.312-.312h-.892a.312.312,0,0,0-.312.312v2.943A17.8,17.8,0,0,1,50.264,68.833h2.943a.312.312,0,0,0,.312-.312v-.892a.312.312,0,0,0-.312-.312H50.264A17.8,17.8,0,0,1,67.317,50.264v2.943a.312.312,0,0,0,.312.312h.892a.312.312,0,0,0,.312-.312V50.264A17.8,17.8,0,0,1,85.886,67.317H82.942a.312.312,0,0,0-.312.312v.892a.312.312,0,0,0,.312.312h2.943A17.8,17.8,0,0,1,68.833,85.886Z" transform="translate(25.925 562.925)" fill="#fff"/>
    <rect id="사각형_7324" data-name="사각형 7324" width="50" height="50" transform="translate(69 606)" fill="none"/>
  </g>
</svg>
